<?xml version="1.0" encoding="UTF-8"?>
<svg id="Layer_1" xmlns="http://www.w3.org/2000/svg" version="1.1" viewBox="0 0 1000 1000">
  <!-- Generator: Adobe Illustrator 30.0.0, SVG Export Plug-In . SVG Version: 2.1.1 Build 123)  -->
  <defs>
    <style>
      .st0 {
        fill: #ffd04b;
      }

      .st1, .st2, .st3 {
        fill: #10101a;
      }

      .st1, .st3, .st4, .st5 {
        stroke: #10101a;
      }

      .st1, .st5 {
        stroke-width: 5px;
      }

      .st3, .st4, .st6, .st7, .st8 {
        stroke-width: 2px;
      }

      .st4 {
        stroke-linecap: round;
        stroke-linejoin: round;
      }

      .st4, .st9, .st6, .st8, .st5 {
        fill: none;
      }

      .st10, .st7 {
        fill: #fff;
      }

      .st9 {
        stroke-width: 3.15px;
      }

      .st9, .st6, .st7, .st8 {
        stroke: #1d1d1b;
      }

      .st9, .st7, .st8 {
        stroke-miterlimit: 10;
      }

      .st6 {
        stroke-dasharray: 6.3;
      }
    </style>
  </defs>
  <circle class="st0" cx="526.26" cy="450.44" r="373.72" transform="translate(-164.37 504.05) rotate(-45)"/>
  <g>
    <path class="st7" d="M603.51,499.18c10.88-29.17,21.77-61.91,32.57-98.14,56.8,22.61,120.58,25.6,175.66,8.28-8.72,58.82-18,114.38-27.79,166.63-59.42-4.88-124.94-30.7-180.44-76.77Z"/>
    <path class="st8" d="M753.02,445.3c-6.41,32.23-12.98,63.11-19.71,92.63"/>
    <path class="st8" d="M727.98,444.53c-6.64,30.24-13.42,59.11-20.32,86.61"/>
    <path class="st8" d="M702.8,441.41c-5.36,22.24-10.79,43.63-16.28,64.15"/>
  </g>
  <g>
    <ellipse class="st2" cx="260.36" cy="878.26" rx="166" ry="45.02"/>
    <g>
      <g>
        <path class="st10" d="M570.2,592.96s15.49,25.04-31.08,37.21c-47.78,12.48-71,3.97-78.18-2.33"/>
        <path class="st10" d="M520.11,670.69s58.17-10.36,70.1-29c13.32-20.81,3.45-39.22-17.5-52.72"/>
        <path class="st10" d="M511.01,714.28s34.56-6.54,51.45-18.57c23.25-16.56,26.74-45.97,22.73-45.9"/>
        <path class="st10" d="M507.18,745.11s18.25-3.74,35.51-13.31c17.26-9.57,24.22-24.44,19.76-36.1"/>
        <path class="st10" d="M515.2,576.49l-66.25,10.21c-31.25,4.82-59.43,21.54-78.62,46.67l-27.08,35.45-179.06,217.97c-13.99,12.17,24.85,16.49,58.85,24.6,0,0,67.48,9.63,84.84-9.74l112.49-124.88s54.95,5.83,95.92-13.34c25.38-11.88,26.4-31.61,26.4-31.61"/>
      </g>
      <ellipse class="st5" cx="583.89" cy="344.89" rx="172.5" ry="119.82" transform="translate(96.48 816.37) rotate(-74.62)"/>
      <ellipse class="st5" cx="575.92" cy="342.69" rx="172.5" ry="111.54" transform="translate(92.73 807.07) rotate(-74.62)"/>
      <path class="st3" d="M507.95,794.88l56.73-234.63-58.66-14.17-56.73,234.61,18.17,10.6c12.28,7.17,27.12,8.48,40.48,3.58h0Z"/>
      <line class="st1" x1="531.8" y1="559.49" x2="544.33" y2="507.65"/>
      <path class="st10" d="M576.33,591.1c-.01-1.53,20.5,12.71,22.47,25.33,3.91,24.98-12.23,29.16-12.23,29.16,0,0,6.65,31.65-23.5,50.06-2.67,1.63,5.14,19.89-20.21,39.04-5.27,3.98.28,19.98-34.08,33.82-51.42,20.72-100.23,7.47-100.23,7.47l33.66-158.04s43.69,23.08,76.62,15.63c46.03-10.42,57.64-25.85,57.51-42.45Z"/>
      <g>
        <path class="st4" d="M560.95,595.44s13.95,22.54-28.66,33.91c-43.71,11.66-64.84,4.14-71.35-1.5"/>
        <path class="st4" d="M520.11,670.69s58.17-10.36,70.1-29c13.32-20.81,3.53-43.78-24.96-57.5"/>
        <path class="st4" d="M511.01,714.28s34.56-6.54,51.45-18.57c23.25-16.56,26.74-45.97,22.73-45.9"/>
        <path class="st4" d="M507.18,745.11s18.25-3.74,35.51-13.31c17.26-9.57,24.22-24.44,19.76-36.1"/>
        <path class="st4" d="M515.2,576.49l-68.48,10.55c-29.82,4.59-56.71,20.55-75.02,44.53l-28.45,37.24-181.9,220.77c-13.99,12.17,94.16,32.37,142.03,17.73l116.99-130.56s54.95,5.83,95.92-13.34c25.38-11.88,26.4-31.61,26.4-31.61"/>
      </g>
    </g>
  </g>
  <g>
    <path class="st7" d="M995.03,315.86c-22.26,35.78-44.52,71.55-66.78,107.33-41.69-67.07-100.01-124.38-170.55-166.76,42.13-23.29,84.26-46.57,126.39-69.86,45.5,32.51,83.68,76.7,110.95,129.3Z"/>
    <path class="st8" d="M812.18,267.19c15.57-10.29,31.13-20.59,46.7-30.88"/>
    <path class="st8" d="M837.52,287.03c22.08-16.93,44.15-33.85,66.23-50.78"/>
    <path class="st8" d="M861.37,308.37c20.21-18,40.41-35.99,60.61-53.99"/>
    <path class="st8" d="M883.66,331.13c14.54-15.06,29.09-30.13,43.63-45.2"/>
  </g>
  <g>
    <path class="st7" d="M4.97,287.06c2.47,44.85,9.47,95.75,20.09,153.28,72.55,4.06,135.29-10.21,182.81-38.88-1.67-44.77,1.81-83.97,11.25-118.31-59.25,18.06-132.48,20.63-214.15,3.9Z"/>
    <path class="st8" d="M180.55,392.09c-.72-18.44-.6-35.92.44-52.5"/>
    <path class="st8" d="M157.03,400.21c-2.01-29.57-2.08-56.81,0-81.87"/>
    <path class="st8" d="M131.96,406.5c-2.88-30.65-3.9-58.9-2.84-84.91"/>
  </g>
  <g>
    <path class="st7" d="M529.64,330.6c-33.03,19.61-68.42,39.99-104.44,61.41-40.46-55.4-80.13-93.06-116.59-113.52,33.82-38.21,68.99-75.31,103.74-111.59,38.87,36.97,78.8,91.36,117.29,163.7Z"/>
    <path class="st8" d="M345.15,273.08c14.28-14.35,28.67-28.52,43.07-42.54"/>
    <path class="st8" d="M361.2,286.31c22.32-20.72,44.81-41.03,67.04-60.98"/>
    <path class="st8" d="M377.49,301.56c22.5-19.24,45.07-38.07,67.25-56.56"/>
    <path class="st8" d="M393.99,318.86c17.83-13.99,35.63-27.73,53.19-41.24"/>
  </g>
  <line class="st6" x1="623.19" y1="302.93" x2="764.88" y2="302.93"/>
  <line class="st8" x1="286.93" y1="337.29" x2="334.51" y2="337.29"/>
  <line class="st8" x1="257.99" y1="337.29" x2="274.16" y2="337.29"/>
  <line class="st8" x1="173.19" y1="240.96" x2="250.95" y2="240.96"/>
  <line class="st8" x1="144.25" y1="240.96" x2="160.42" y2="240.96"/>
  <line class="st8" x1="115.96" y1="240.96" x2="132.13" y2="240.96"/>
  <g>
    <path class="st7" d="M274.79,592.72c-14.57-33.22-29.13-66.41-43.68-99.57,37.92-53.38,91.86-88.78,149.55-100.39,24.27,48.5,48.55,97.02,72.86,145.56-67.7-4.55-131.52,15.59-178.73,54.41Z"/>
    <path class="st8" d="M362.38,423.75c9.25,18.76,18.5,37.53,27.76,56.3"/>
    <path class="st8" d="M315.77,443.22c12.56,26.26,25.13,52.53,37.7,78.81"/>
    <path class="st8" d="M294.01,456.72c9.22,19.62,18.44,39.25,27.66,58.89"/>
  </g>
  <line class="st8" x1="169.06" y1="581.46" x2="246.82" y2="581.46"/>
  <line class="st8" x1="140.12" y1="581.46" x2="156.29" y2="581.46"/>
  <line class="st9" x1="111.83" y1="581.46" x2="128" y2="581.46"/>
  <line class="st8" x1="181.9" y1="530.39" x2="198.07" y2="530.39"/>
  <line class="st8" x1="153.61" y1="530.39" x2="169.78" y2="530.39"/>
</svg>