<?xml version="1.0" encoding="UTF-8"?>
<svg id="Layer_1" xmlns="http://www.w3.org/2000/svg" version="1.1" viewBox="0 0 1000 1000">
  <!-- Generator: Adobe Illustrator 30.0.0, SVG Export Plug-In . SVG Version: 2.1.1 Build 123)  -->
  <defs>
    <style>
      .st0 {
        fill: #010101;
      }

      .st1 {
        stroke: #111119;
      }

      .st1, .st2 {
        stroke-linecap: round;
        stroke-linejoin: round;
      }

      .st1, .st2, .st3, .st4, .st5 {
        stroke-width: 2px;
      }

      .st1, .st2, .st3, .st5 {
        fill: none;
      }

      .st6 {
        fill: #10101a;
      }

      .st7 {
        fill: #1d1d1b;
      }

      .st2 {
        stroke: #10101a;
      }

      .st8, .st4 {
        fill: #fff;
      }

      .st3 {
        stroke: #292e34;
      }

      .st4 {
        stroke: #010101;
      }

      .st9 {
        fill: #fccd42;
      }

      .st5 {
        stroke: #1d1d1b;
        stroke-miterlimit: 10;
      }

      .st10 {
        fill: #a0b0c2;
      }
    </style>
  </defs>
  <ellipse class="st6" cx="213.14" cy="414.47" rx="73.18" ry="137.56" transform="translate(-119.42 87.95) rotate(-18.31)"/>
  <path class="st6" d="M775.89,507.75c-24.11-5.13-33-59.3-19.87-120.99,13.14-61.69,43.33-107.54,67.43-102.41,24.11,5.13,33,59.3,19.87,120.99-13.13,61.69-43.33,107.54-67.43,102.41Z"/>
  <g>
    <path class="st2" d="M589.95,634.48c10.79-.66,15.89-10.56,11.44-22.27l-133.03-369.57c-2.94-8.61-10.28-16.93-16.39-18.56L12.28,148.57c-6.1-.58-8.64,8.32-5.67,19.85l134.14,501.27c4.55,16.34,17.15,27.53,28.06,25l421.14-60.22Z"/>
    <g>
      <path class="st0" d="M52.4,197.51c1.62,6.13-.23,10.86-4.13,10.57-3.9-.28-8.38-5.5-10-11.68-1.62-6.18.23-10.94,4.13-10.61,3.9.33,8.38,5.59,10,11.72Z"/>
      <path class="st0" d="M73.15,199.28c1.62,6.06-.23,10.7-4.13,10.38-3.9-.31-8.37-5.5-9.99-11.61-1.62-6.11.23-10.78,4.13-10.42,3.9.36,8.38,5.59,10,11.64Z"/>
      <path class="st0" d="M93.9,201.21c1.62,5.98-.23,10.55-4.13,10.2-3.9-.34-8.38-5.5-10-11.53-1.62-6.04.23-10.63,4.14-10.24,3.9.4,8.38,5.58,9.99,11.57Z"/>
    </g>
  </g>
  <g>
    <path class="st2" d="M902.16,617.71c8.54,3.71,17.38-3.92,19.8-17.09l72.24-392.57c1.6-8.67-1.38-15.37-6.65-14.96l-267.46,22.3c-5.26.37-10.4,5.45-11.48,11.33l-48.74,266.23c-1.66,9.06,4.03,19.57,12.66,23.41l229.63,101.36Z"/>
    <g>
      <path class="st0" d="M739.58,239.05c-.62,3.39-3.83,6.2-7.17,6.27-3.33.07-5.55-2.56-4.94-5.89.61-3.32,3.82-6.13,7.16-6.27,3.35-.14,5.56,2.5,4.94,5.89Z"/>
      <path class="st0" d="M757.35,238.48c-.64,3.49-3.86,6.37-7.2,6.44-3.34.07-5.53-2.64-4.9-6.06.63-3.42,3.85-6.3,7.19-6.44,3.35-.14,5.54,2.57,4.91,6.06Z"/>
      <path class="st0" d="M775.12,237.91c-.66,3.58-3.89,6.54-7.23,6.62-3.34.07-5.52-2.71-4.87-6.23.64-3.51,3.88-6.48,7.23-6.62,3.35-.14,5.53,2.65,4.87,6.23Z"/>
    </g>
  </g>
  <g>
    <path class="st10" d="M601.41,451.8H214.55c-22.65,0-43.43-12.55-53.98-32.6l-4.35-8.26c-19.95-37.92-11.03-84.59,21.49-112.48h423.7v153.34Z"/>
    <path class="st9" d="M771.42,451.8h-238.88v-153.34h266.9c15.59,0,28.49,12.12,29.46,27.68l1.7,27.26c1.66,26.61-4.92,53.08-18.85,75.81h0c-8.6,14.03-23.88,22.59-40.34,22.59Z"/>
    <g>
      <g>
        <path class="st9" d="M369.97,473.49l47.05-39.73-30-25.71-40.73,39.18c-6.65,6.4-7.26,16.83-1.41,23.97h0c6.26,7.62,17.54,8.65,25.08,2.29Z"/>
        <path class="st9" d="M397.28,496.52l47.05-39.73-30-25.71-40.73,39.18c-6.65,6.4-7.26,16.83-1.41,23.97h0c6.26,7.62,17.54,8.65,25.08,2.29Z"/>
        <path class="st9" d="M428.99,519.27l43.2-32.48-28.92-37.49-39.25,42.28c-6.37,6.86-6.69,17.37-.75,24.61h0c6.36,7.75,17.7,9.11,25.72,3.08Z"/>
        <path class="st9" d="M454.64,532.85l27.18-12.85-18.21-35.35-25.63,23.33c-5.8,5.28-6.6,14.13-1.84,20.37h0c4.33,5.68,12.04,7.55,18.5,4.5Z"/>
        <path class="st9" d="M654.26,306.64c-21.29,5.31-43.58,5.14-64.77-.55l-48.34-12.96c-14.26-3.82-29.48-.09-40.35,9.9l-114.31,105.02,94.81,112.48,120.16-58.56,52.81-13.42v-141.91Z"/>
      </g>
      <path class="st10" d="M557.7,489.89l8.73-6.76,9.92-35.98c1.03-3.72,3.75-6.74,7.34-8.14h0c8.07-3.15,16.76,2.88,16.65,11.54l-.55,44.05c-.19,14.73-14.2,25.34-28.43,21.51l-14.34-3.86.68-22.36Z"/>
      <path class="st10" d="M527.89,498.39l9.49-39.29c1.27-8.13,8.82-13.74,16.97-12.62h0c7.3,1,12.81,7.13,13.04,14.49l1.79,57.72c.45,14.42-15.06,23.77-27.6,16.65l-14.76-8.38,1.07-28.57Z"/>
      <path class="st10" d="M496.47,513.03l-23.57,11.07,28.47,18c11.07,6.84,25.39-.88,25.76-13.88l1.31-45.39c.26-9.07-8.16-15.91-16.99-13.8h0c-5.58,1.34-9.74,6-10.46,11.69l-4.53,32.32Z"/>
      <line class="st1" x1="496.47" y1="511.96" x2="402.2" y2="395.55"/>
      <line class="st1" x1="373.61" y1="470.26" x2="425.41" y2="424.83"/>
      <line class="st1" x1="404.02" y1="491.58" x2="451.12" y2="456.61"/>
      <line class="st1" x1="433.08" y1="513.57" x2="476.11" y2="486.97"/>
      <line class="st1" x1="567.53" y1="478.22" x2="568.6" y2="504.11"/>
      <line class="st1" x1="527.89" y1="498.39" x2="527.13" y2="528.22"/>
      <path class="st10" d="M580.62,466.99l10.68-2.82,23.18-29.25c2.4-3.02,6.08-4.74,9.94-4.62h0c8.66.26,14.31,9.19,10.83,17.13l-17.71,40.33c-5.92,13.49-22.97,17.78-34.57,8.7l-11.7-9.15,9.36-20.32Z"/>
      <line class="st1" x1="601.34" y1="454.3" x2="600.4" y2="499.07"/>
      <path class="st10" d="M593.69,327.76l-83.02-39.26c-26.99-12.76-57.52-15.93-86.55-8.98l-51.33,12.29c-26.6,6.37-62.14,16.98-89.29,14.92l8.18,127.96c15.72,2.69,31.16,7.02,46.05,12.98l6.62,1.79,92.84-87.49c16.27-17.21,35.18-27.12,58.38-22.39l57.42,11.7c13.44,2.74,27.42.11,38.94-7.33l2.7-1.74c5.46-3.52,4.93-11.68-.95-14.46Z"/>
    </g>
  </g>
  <g>
    <path class="st4" d="M495.76,579.07c-27.93,35.05-55.85,70.07-83.74,105.06,28.35,75.78,81.55,135.16,146.76,167.32,44.36-50.22,88.75-100.47,133.17-150.73-82.29-16.04-152.12-60.33-196.2-121.66Z"/>
    <path class="st5" d="M546.78,808.63c16.99-19.47,34-38.95,51.01-58.43"/>
    <path class="st5" d="M497.29,770.6c23.33-27.37,46.67-54.76,70.02-82.15"/>
    <path class="st5" d="M475.58,747.57c17.23-20.51,34.47-41.03,51.72-61.56"/>
  </g>
  <g>
    <line class="st3" x1="807.27" y1="604.35" x2="824.38" y2="640.56"/>
    <path class="st7" d="M631.23,693.11l183.05-91.99c3.87-1.79,9.59,2.22,12.77,8.95l5.76,12.19c3.18,6.73,2.62,13.63-1.26,15.42l-183.05,91.99"/>
    <path class="st9" d="M808.23,603.9l17.27,36.56,6.05-2.79c3.87-1.79,4.44-8.69,1.26-15.42l-5.76-12.19c-3.18-6.73-8.9-10.74-12.77-8.95l-6.05,2.79Z"/>
    <g>
      <polygon class="st8" points="613.75 723.41 630.79 699.15 643.52 726.09 613.75 723.41"/>
      <path class="st6" d="M630.28,705.15l8.25,17.45-19.29-1.73,11.04-15.72M631.31,693.15l-23.04,32.81,40.26,3.62-17.21-36.43h0Z"/>
    </g>
    <polygon class="st7" points="627.97 727.73 619.54 709.9 608.26 725.96 627.97 727.73"/>
  </g>
</svg>