<?xml version="1.0" encoding="UTF-8"?>
<svg id="Layer_1" xmlns="http://www.w3.org/2000/svg" version="1.1" viewBox="0 0 1000 1000">
  <!-- Generator: Adobe Illustrator 30.0.0, SVG Export Plug-In . SVG Version: 2.1.1 Build 123)  -->
  <defs>
    <style>
      .st0 {
        fill: #010101;
      }

      .st1 {
        fill: #ffd04c;
      }

      .st2 {
        fill: #10101a;
      }

      .st3, .st4 {
        stroke: #10101a;
      }

      .st3, .st4, .st5 {
        stroke-linecap: round;
        stroke-linejoin: round;
        stroke-width: 2px;
      }

      .st3, .st6 {
        fill: #fff;
      }

      .st4, .st5 {
        fill: none;
      }

      .st5 {
        stroke: #010101;
      }

      .st7 {
        fill: #a0b0c2;
      }
    </style>
  </defs>
  <path class="st7" d="M600.29,686.21l-127.78,121.78c-63.25,60.28-163.8,56.37-222.18-8.64l-41.17-45.85,265.97-168.74,125.16,101.44Z"/>
  <g>
    <path class="st6" d="M579.52,700.65c-48.3-22.1-84.85-63.7-100.52-114.51l282.29-191.98,51.29,93.13-233.06,213.36Z"/>
    <path class="st2" d="M760.15,398.94l48.29,87.68-229.52,210.11c-45.73-21.58-80.47-61.08-96.02-109.24l277.26-188.55M762.43,389.39l-287.3,195.38.55,1.81c16.06,52.62,54.18,95.66,104.46,117.97h0l236.58-216.58-54.29-98.59h0Z"/>
  </g>
  <path class="st7" d="M245.1,562.2l-87.63,10.58c-60.2,7.27-110.52,49.23-128.48,107.15l-20.49,90.63c-17.86,78.98,37.54,155.75,118.12,163.69h0c47.49,4.68,93.92-16.12,122.02-54.69l92.96-127.55-96.51-189.8Z"/>
  <g>
    <path class="st2" d="M287.24,520.51l-35.34,8.56c-40.62,9.84-81.91-15.35-91.75-55.98l-3.39-14c-12.32-50.87,19.22-102.57,70.09-114.88l7.26,13.07c31.89-7.72,64.29,12.05,72.01,43.94l15.32,63.25c6.01,24.82-9.38,50.04-34.2,56.05Z"/>
    <path class="st3" d="M181.26,572.43l26.08-1.13,29.28-129.84,93.06,20.02-19.55,105.36,28.02-1.22c1.09,3.2,1.68,6.51,1.67,9.91-.01,26.68-35.56,48.29-79.39,48.27-43.83-.02-79.35-21.67-79.34-48.35,0-1.01.07-2.02.17-3.02Z"/>
    <path class="st2" d="M251.89,368.36c4.67,19.3-7.18,38.73-26.48,43.41-19.3,4.67-38.73-7.18-43.41-26.48-4.67-19.3,7.18-38.73,26.48-43.41,19.3-4.67,38.73,7.18,43.41,26.48Z"/>
    <path class="st2" d="M219.13,357.54c-36.64,13.95-58.4,52.68-50.4,91.78,9.9,3.6,21.06,4.42,32.25,1.71,29.06-7.04,47.19-35.16,40.5-62.81-3.19-13.17-11.44-23.85-22.35-30.67Z"/>
    <path class="st2" d="M174.23,411.99c-12.1,37.29,4.42,78.52,39.89,96.81,9.01-5.45,16.65-13.64,21.55-24.05,12.74-27.05,2.2-58.81-23.54-70.93-12.26-5.77-25.76-6.04-37.91-1.82Z"/>
    <path class="st2" d="M275.73,369.38c4.67,19.3-7.18,38.73-26.48,43.41-19.3,4.67-38.73-7.18-43.41-26.48-4.67-19.3,7.18-38.73,26.48-43.41,19.3-4.67,38.73,7.18,43.41,26.48Z"/>
    <path class="st2" d="M316.89,361.26c4.81,19.85-7.39,39.84-27.24,44.64-19.85,4.81-39.84-7.39-44.64-27.24-4.81-19.85,7.39-39.84,27.24-44.64,19.85-4.81,39.84,7.39,44.64,27.24Z"/>
    <path class="st2" d="M276.32,355.94c4.81,19.85-7.39,39.84-27.24,44.64-19.85,4.81-39.84-7.39-44.64-27.24-4.81-19.85,7.39-39.84,27.24-44.64,19.85-4.81,39.84,7.39,44.64,27.24Z"/>
    <path class="st4" d="M150.64,411.1s11.49-7.17,21.56-1.07"/>
    <path class="st4" d="M152.86,399.81s8.24,10.75,19.8,8.58"/>
    <path class="st3" d="M332.19,401.74c-28.11-44.63-81.46-61.57-119.15-37.83-31.86,20.07-42.34,62.79-27.83,102.48-.88.21-1.76.42-2.64.72-13.29,4.53-21.32,18.73-18.33,32.45,3.36,15.41,18.71,24.97,33.96,21.28,6.71-1.63,12.23-5.58,15.99-10.76,29.34,27.23,70.13,34.69,100.65,15.46,37.69-23.74,45.46-79.17,17.34-123.8Z"/>
    <path class="st2" d="M191.36,429.06l29.41,46.98c.92,1.48,1.09,3.31.45,4.93h0c-1.25,3.17-5.06,4.44-7.96,2.67l-28.24-17.23,6.34-37.34Z"/>
    <path class="st4" d="M202.03,490.33s-4.88-10.11-14.78-11.23"/>
    <path class="st2" d="M163.43,395.85c-9.1,19.06-12,41.22-6.67,63.23l2.55,10.52c3.89.34,7.88.09,11.88-.88,19.85-4.81,32.04-24.79,27.24-44.64-4.02-16.61-18.69-27.82-35-28.23Z"/>
  </g>
  <line class="st5" x1="23.13" y1="800.26" x2="138.05" y2="715.94"/>
  <path class="st4" d="M280.29,456.4s35.36,45.09,30.48-6.22"/>
  <path class="st4" d="M241.82,444.36c-15.5-11.78-19.37-85.72,28.66-15.19"/>
  <path class="st4" d="M301.88,409.68s-26.12-75.2,22.68-18.53"/>
  <path class="st4" d="M229.44,379.43s-10.68,4.42-12.42,14.53"/>
  <path class="st4" d="M286.65,357.1s-11.44-1.65-18.09,6.17"/>
  <g>
    <path class="st6" d="M844.18,126.78c-125.68-109.04-271.1-69.67-324.72,87.92-53.53,157.7,5.2,374.02,130.74,483.1,125.89,109.11,271.3,69.87,324.79-87.87,53.61-157.64-5.05-373.98-130.81-483.14Z"/>
    <g>
      <path class="st0" d="M802.74,248.87c-71.94-62.41-155.18-39.87-185.88,50.33-30.64,90.28,2.98,214.1,74.84,276.54,72.06,62.45,155.3,39.99,185.92-50.3,30.69-90.24-2.89-214.07-74.88-276.56ZM836.72,489.95c-21.02,61.96-78.13,77.37-127.58,34.52-49.32-42.84-72.39-127.82-51.36-189.76,21.07-61.89,78.19-77.36,127.56-34.54,49.39,42.87,72.43,127.86,51.38,189.78Z"/>
      <path class="st0" d="M844.18,126.78c-125.68-109.04-271.1-69.67-324.72,87.92-53.53,157.7,5.2,374.02,130.74,483.1,125.89,109.11,271.3,69.87,324.79-87.87,53.61-157.64-5.05-373.98-130.81-483.14ZM926.45,567.8c-42.1,124.1-156.5,154.98-255.56,69.14-98.79-85.82-144.99-256.04-102.87-380.11,42.21-123.97,156.62-154.95,255.51-69.18,98.93,85.88,145.08,256.11,102.92,380.15Z"/>
      <path class="st1" d="M764.57,361.36c-22.45-19.47-48.4-12.44-57.97,15.7-9.56,28.15.92,66.77,23.33,86.24,22.48,19.48,48.44,12.47,57.99-15.7,9.57-28.13-.91-66.75-23.35-86.24Z"/>
    </g>
  </g>
  <g>
    <path class="st6" d="M443.29,302.18l55.93-23.91c3.74-1.59,8.1-.79,11.06,2.24,1.94,1.98,2.84,4.78,2.77,7.55-.22,8.77-4.66,16.88-11.97,21.8l-19.93,13.4-.94,9.33,20.56-21.51c.32-.23.62-.45.94-.68l44.3-21.01c2.31-1.09,4.97-1.43,7.39-.62,3.25,1.1,5.58,3.74,6.28,7.01,1.38,6.48.02,13.34-3.73,18.8l-.91,1.32,23.65-6.26c1.47-.39,2.99.33,3.67,1.69,2.32,4.61,3.84,14.21-2.82,23.34,2.15.9,4.05,2.48,4.38,6.47.08,1.03,0,2.09-.28,3.08-2.6,9.25-9.01,16.88-17.72,21.04l-21.29,10.17-26.62,38.32,13.54,57.5c5.67,24.09.71,49.48-13.61,69.65l-209.25,255.6c-.58.82.61-.49-.4-.47-.96.02-.98-1.15-1.6-1.88-.03-.03-.05-.06-.08-.09l-22.13,7.58c-52.25,17.89-109.57-6.51-132.9-56.57l-13.61-29.2c-.95-1.21-2.99-1.15-1.96-2.3l306.14-252.4-.78-156.03c0-1.28.75-2.44,1.93-2.94Z"/>
    <g>
      <path class="st4" d="M476.06,342.04l2.07-20.59,21.17-14.24c6.59-4.43,10.55-11.85,10.57-19.8h0c.01-4.85-4.94-8.13-9.4-6.22l-55.93,23.91.79,157.24-307.28,253.59s39.75,135.08,168.63,78.2l208.66-255.09c13.8-19.44,18.57-43.88,13.11-67.08l-13.87-58.88,27.91-40.18,22.05-10.54c8.12-3.88,14.09-11.19,16.26-19.92h0c.78-3.13-2.1-5.93-5.2-5.08l-55.34,15.23-35.07,41.37"/>
      <path class="st4" d="M460.69,357.6l42.37-44.33,44.68-21.2c3.65-1.73,7.97.4,8.81,4.35h0c1.21,5.66.03,11.57-3.24,16.34l-4.35,6.34"/>
      <path class="st4" d="M472.47,376.19l40.28-45.82,66.75-17.67s7.26,14.26-8.7,26.24"/>
    </g>
  </g>
  <g>
    <path class="st3" d="M940.79,223.68l5.07,19.89,9.95-16.19c3.84-6.26,5.3-13.69,4.1-20.93h0c-1.07-6.45-4.15-9.11-12.94-11.76l-46-12.13.67,9.9c.48,7.05,4.6,13.35,10.88,16.6l28.27,14.64Z"/>
    <path class="st3" d="M943.6,252.08l6.02,23.62,11.82-19.23c4.56-7.43,6.29-16.25,4.87-24.86h0c-1.27-7.65-7.63-13.44-15.37-13.97l-66.24-5.5,3.16,15.76c1.64,8.15,7.91,14.59,16.02,16.42l39.71,7.76Z"/>
    <path class="st3" d="M951.51,283.15l6.01,23.62,11.82-19.23c4.56-7.43,6.29-16.25,4.87-24.86h0c-1.27-7.65-7.63-13.44-15.37-13.97l-60.55-4.8,3.16,15.76c1.64,8.15,7.91,14.59,16.02,16.42l34.02,7.05Z"/>
    <path class="st3" d="M959.03,312.68l6.02,23.62,11.81-19.23c4.56-7.43,6.29-16.25,4.87-24.85h0c-1.27-7.65-7.62-13.44-15.37-13.97l-52.39-3.61,3.16,15.76c1.64,8.15,7.91,14.59,16.02,16.42l25.87,5.86Z"/>
  </g>
</svg>