<?xml version="1.0" encoding="UTF-8"?>
<svg id="Layer_1" xmlns="http://www.w3.org/2000/svg" version="1.1" viewBox="0 0 1000 1000">
  <!-- Generator: Adobe Illustrator 30.0.0, SVG Export Plug-In . SVG Version: 2.1.1 Build 123)  -->
  <defs>
    <style>
      .st0, .st1, .st2, .st3, .st4, .st5, .st6, .st7, .st8, .st9, .st10 {
        stroke-width: 2px;
      }

      .st0, .st1, .st3, .st4, .st7 {
        stroke-linecap: round;
        stroke-linejoin: round;
      }

      .st0, .st1, .st3, .st11 {
        fill: #fff;
      }

      .st0, .st5, .st7 {
        stroke: #010101;
      }

      .st1 {
        stroke: #204143;
      }

      .st12 {
        fill: #10101a;
      }

      .st2 {
        stroke: #292e34;
        stroke-dasharray: 2 2;
      }

      .st2, .st4, .st5, .st6, .st7, .st8, .st9, .st10 {
        fill: none;
      }

      .st2, .st8, .st10 {
        stroke-miterlimit: 10;
      }

      .st3, .st4, .st6, .st8, .st10 {
        stroke: #10101a;
      }

      .st8 {
        stroke-dasharray: 2.05 2.05;
      }

      .st9 {
        stroke: #fff;
      }

      .st13 {
        fill: #fccd42;
      }

      .st14 {
        fill: #a0b0c2;
      }
    </style>
  </defs>
  <g>
    <line class="st5" x1="926.86" y1="515.89" x2="861.07" y2="515.89"/>
    <line class="st5" x1="893.97" y1="548.79" x2="893.97" y2="483"/>
  </g>
  <g>
    <line class="st5" x1="950.36" y1="413.66" x2="912.9" y2="413.66"/>
    <line class="st5" x1="931.64" y1="432.39" x2="931.63" y2="394.93"/>
  </g>
  <g>
    <g>
      <rect class="st3" x="18.63" y="449.52" width="798.76" height="504.75" rx="9" ry="9"/>
      <circle class="st4" cx="64.29" cy="488.26" r="12.92"/>
      <circle class="st4" cx="107.76" cy="488.26" r="12.92"/>
      <circle class="st4" cx="151.22" cy="488.26" r="12.92"/>
    </g>
    <rect class="st13" x="350.45" y="550.92" width="118.9" height="309.5"/>
    <rect class="st13" x="111.1" y="550.92" width="118.9" height="309.5"/>
    <rect class="st13" x="588.4" y="550.92" width="118.9" height="309.5"/>
    <g>
      <line class="st4" x1="111.56" y1="826.2" x2="708.18" y2="826.2"/>
      <line class="st4" x1="111.62" y1="838.31" x2="111.62" y2="826.2"/>
      <line class="st4" x1="230.94" y1="838.31" x2="230.94" y2="826.2"/>
      <line class="st4" x1="350.26" y1="838.31" x2="350.26" y2="826.2"/>
      <line class="st4" x1="469.59" y1="838.31" x2="469.59" y2="826.2"/>
      <line class="st4" x1="588.91" y1="838.31" x2="588.91" y2="826.2"/>
      <line class="st4" x1="708.24" y1="838.31" x2="708.24" y2="826.2"/>
    </g>
    <g>
      <path class="st12" d="M120.99,766.36c0,4.52-4.09,8.19-9.13,8.19s-9.13-3.67-9.13-8.19,4.09-8.19,9.13-8.19,9.13,3.67,9.13,8.19Z"/>
      <path class="st12" d="M360.31,746.25c0,4.52-4.09,8.19-9.13,8.19s-9.13-3.67-9.13-8.19,4.09-8.19,9.13-8.19,9.13,3.67,9.13,8.19Z"/>
      <path class="st12" d="M596.82,691.01c0,4.52-4.09,8.19-9.13,8.19s-9.13-3.67-9.13-8.19,4.09-8.19,9.13-8.19,9.13,3.67,9.13,8.19Z"/>
      <ellipse class="st12" cx="704.47" cy="585.65" rx="9.13" ry="8.19"/>
    </g>
    <path class="st4" d="M112.53,766.33s84.68-153.16,238.65-20.09c153.97,133.08,243.72-66.33,243.72-66.33,0,0,45.32-92.48,109.7-94.36"/>
  </g>
  <g>
    <path class="st12" d="M562.21,200.93c1.55-6.84.34-13.88-3.41-19.82-2.95-4.68-7.22-8.17-12.24-10.22.92-.89,1.84-1.77,2.64-2.8,4.3-5.55,6.17-12.44,5.29-19.4-1.61-12.68-12.04-22.32-24.78-22.93-.06,0-.12,0-.18,0,3.51-7.2,3.78-15.87-.16-23.52-4.29-8.32-12.76-13.77-22.12-14.21-3.11-.15-6.21.31-9.17,1.25.13-1.27.27-2.53.22-3.82-.28-7.01-3.27-13.5-8.42-18.26-4.53-4.19-10.41-6.65-16.56-6.95-6.31-.3-12.35,1.75-17.26,5.54-1.92-7.81-7.3-14.68-15.27-18.02-2.85-1.2-5.84-1.87-8.9-2.02-9.5-.46-18.42,4.33-23.42,12.19-4.48-6.64-11.86-11.22-20.46-11.63-12.96-.62-24.14,8.33-26.84,20.6-4.07-2.97-8.96-4.83-14.2-5.08-3.06-.15-6.1.24-9.05,1.16-6.7,2.08-12.19,6.65-15.46,12.86-2.56,4.87-3.46,10.29-2.75,15.64-1.94-.56-3.95-.93-6.02-1.03-6.15-.29-12.24,1.6-17.15,5.33-5.59,4.25-9.19,10.42-10.13,17.37-.74,5.45.27,10.85,2.76,15.63-8.21.58-15.79,4.97-20.29,11.97-3.79,5.9-5.07,12.93-3.58,19.79,1.17,5.4,3.98,10.13,7.98,13.77-7.39,3.27-13.13,9.81-15.01,18.16-1.55,6.85-.34,13.88,3.41,19.82,2.95,4.67,7.22,8.17,12.24,10.22-5.78,5.57-9.02,13.64-7.93,22.19,1.61,12.68,12.03,22.32,24.78,22.93.06,0,.12,0,.18,0-3.51,7.2-3.78,15.87.16,23.52,4.29,8.32,12.76,13.77,22.12,14.21,3.11.15,6.21-.31,9.17-1.25-.13,1.27-.27,2.53-.22,3.82.28,7.01,3.27,13.5,8.42,18.26,4.53,4.19,10.41,6.65,16.56,6.95,6.3.3,12.35-1.75,17.26-5.54,1.92,7.81,7.3,14.67,15.28,18.02,2.84,1.19,5.84,1.87,8.9,2.02,9.5.46,18.42-4.33,23.42-12.19,4.48,6.64,11.86,11.22,20.46,11.63,12.96.62,24.14-8.33,26.84-20.6,4.07,2.97,8.96,4.83,14.2,5.08,3.06.15,6.11-.24,9.05-1.16,6.7-2.08,12.19-6.65,15.46-12.86,2.56-4.87,3.45-10.29,2.74-15.64,1.94.56,3.95.93,6.02,1.03,6.15.29,12.24-1.6,17.16-5.33,10.31-7.85,13.13-21.87,7.34-33,8.21-.57,15.81-4.97,20.31-11.98,3.8-5.9,5.07-12.93,3.58-19.79-1.17-5.4-3.99-10.13-7.99-13.77,7.39-3.27,13.13-9.81,15.02-18.16Z"/>
    <g>
      <path class="st4" d="M476.57,235.6c3.05-27.26,27.63-46.89,54.89-43.84,27.26,3.05,46.89,27.63,43.84,54.89-1.23,11.01-5.98,20.78-12.99,28.31"/>
      <path class="st12" d="M567.5,241.6c-2.8,24.98-25.32,42.97-50.3,40.17-24.98-2.8-42.97-25.32-40.17-50.3,2.8-24.98,25.32-42.97,50.3-40.17,24.98,2.8,42.97,25.32,40.17,50.3Z"/>
      <path class="st14" d="M267.59,499.11l-166.97,26.16c-36.84,5.77-72.92-14.12-87.71-48.36h0c-15.56-36.02-3.33-78.01,29.13-100.05l66.38-45.07c70.88-48.12,156.26-70.15,241.57-62.31l159.39,14.64c39.56,2.29,78.84,7.99,117.42,17.04l118.37,27.78c80.37,18.86,81.65,132.8,1.72,153.46l-96.19,13.67-114.45-48.29-268.67,51.35Z"/>
      <path class="st3" d="M326.98,355.79h0c19.59,21.58,52.96,23.18,74.54,3.59l79.88-72.53c21.58-19.59,23.18-52.96,3.59-74.54h0c-19.59-21.57-52.96-23.18-74.54-3.59l-79.88,72.53c-21.58,19.59-23.18,52.96-3.59,74.54Z"/>
      <g>
        <path class="st3" d="M277.75,354.95s86.84,13.66,128.3,18.59c41.45,4.93,100.4,28.43,100.4,28.43,62.96,19.14,100.62,65.17,102.19,67.12,5.65,7.01,4.55,17.25-2.45,22.92-6.99,5.66-17.27,4.59-22.95-2.39-.12-.15-4.5-5.45-12.53-12.91,11.11,19.17,14.4,34.4,14.63,35.5,1.82,8.79-3.82,17.36-12.61,19.22-6.22,1.32-12.36-1.11-16.11-5.75-1.55-1.92-2.68-4.21-3.24-6.78-.03-.12-.99-4.24-3.53-10.59,1.11,6.45,1.32,10.59,1.34,11.15.33,8.97-6.66,16.48-15.63,16.85-5.37.22-10.25-2.19-13.38-6.08-2.11-2.62-3.43-5.9-3.61-9.5-.01-.32-1.68-29.08-23.25-57.78,14.94,23.79,15.94,44.78,15.98,45.96.32,8.94-6.62,16.4-15.56,16.81-5.39.25-10.29-2.17-13.45-6.09-2.09-2.59-3.41-5.83-3.61-9.38-.04-.79-1.04-15.32-12.32-32.03-20.75,10.38-45.12-7.96-45.12-7.96,0,0-148.35,33.3-153.66,28.87-5.32-4.43-29.34-17.76-32.46-66.22-3.26-50.54,42.63-77.95,42.63-77.95Z"/>
        <path class="st1" d="M538.31,431.65s23.51,23.76,32.4,45.05"/>
        <path class="st1" d="M522.68,446.87s22.83,29.73,27.17,61.43"/>
      </g>
      <g>
        <path class="st3" d="M676.32,350.41s-87.72-5.88-129.23-10.24c-41.52-4.36-104.2,5.52-104.2,5.52-65.64,4.74-112.54,41.31-114.5,42.86-7.06,5.58-8.25,15.82-2.68,22.89,5.57,7.07,15.82,8.29,22.91,2.74.15-.12,5.6-4.32,15.07-9.82-15.08,16.24-21.65,30.36-22.12,31.38-3.72,8.17-.11,17.78,8.04,21.54,5.77,2.66,12.3,1.65,16.98-2.05,1.93-1.53,3.55-3.52,4.66-5.9.05-.11,1.9-3.92,5.79-9.55-2.5,6.05-3.63,10.04-3.77,10.58-2.3,8.68,2.85,17.54,11.52,19.89,5.19,1.4,10.48.13,14.4-2.97,2.63-2.08,4.65-4.99,5.62-8.47.09-.31,8.07-27.99,35.45-51.21-19.83,19.9-25.45,40.15-25.75,41.29-2.29,8.65,2.83,17.46,11.46,19.84,5.2,1.44,10.51.16,14.46-2.97,2.61-2.06,4.62-4.93,5.6-8.35.22-.76,4.4-14.71,19.1-28.51,17.94,14.71,45.76,2.21,45.76,2.21,0,0,137.31,65.28,143.47,62.13,6.16-3.15,32.54-10.83,46.3-57.4,14.36-48.57-24.34-85.44-24.34-85.44Z"/>
        <path class="st3" d="M405.25,367.6s-28.18,17.97-41.56,36.77"/>
        <path class="st3" d="M417.13,385.89s-28.84,23.95-40.08,53.91"/>
      </g>
      <g>
        <path class="st3" d="M382.87,288.39c2.41,26.67,20.39,50.6,47.49,59.28h0c36.14,11.58,74.82-8.34,86.39-44.48l22.5-70.24c11.58-36.14-8.34-74.82-44.48-86.39h0c-36.14-11.58-74.82,8.34-86.39,44.48"/>
        <path class="st12" d="M442.35,136.61c-8.51,1.74-16.5,4.44-23.91,7.84-3.95,10.72-5.17,22.1-2.85,33.46,8,39.13,53.9,62.8,102.53,52.86,8.51-1.74,16.5-4.44,23.91-7.84,3.95-10.72,5.17-22.1,2.85-33.46-8-39.13-53.91-62.8-102.53-52.86Z"/>
        <path class="st11" d="M424.29,229.62c11.32-10.28,12.17-27.8,1.89-39.12-10.28-11.32-27.8-12.17-39.12-1.89-11.32,10.28-12.17,27.8-1.89,39.12,4.28,4.72,9.82,7.61,15.64,8.65"/>
        <path class="st12" d="M500.03,284.72c-2.39,4.03-1.98,8.68.92,10.4,2.9,1.72,7.18-.15,9.57-4.18,2.39-4.03,1.98-8.68-.92-10.4-2.9-1.72-7.18.15-9.57,4.18Z"/>
        <path class="st12" d="M467.7,270.95c-2.39,4.03-1.98,8.68.92,10.4,2.9,1.72,7.18-.15,9.57-4.18,2.39-4.03,1.98-8.68-.92-10.4s-7.18.15-9.57,4.18Z"/>
        <path class="st4" d="M462.51,317.38c-5.05-3.56-8.42-9.41-8.95-15.56"/>
        <path class="st4" d="M478.61,301.41c3.35-8.03,6.71-16.07,10.06-24.1"/>
        <path class="st4" d="M521.71,276.43c-2.01-4.01-4.91-7.57-8.43-10.35"/>
        <path class="st4" d="M487.01,255.47c-3.63-4.08-10.13-5.28-14.98-2.76"/>
      </g>
      <line class="st4" x1="123.74" y1="361.22" x2="277.75" y2="354.95"/>
      <line class="st4" x1="728.64" y1="352.66" x2="676.32" y2="350.41"/>
    </g>
  </g>
  <line class="st2" x1="925.74" y1="678.48" x2="925.74" y2="624.62"/>
  <g>
    <path class="st7" d="M957.77,727.2l16.58,10.97c19.69,13.03,24.62,43.92,10.27,74.54-16.4,34.99-51.75,56.36-78.97,47.73l-16.58-10.97c27.22,8.63,62.57-12.74,78.97-47.73,14.35-30.61,9.43-61.51-10.26-74.53Z"/>
    <path class="st7" d="M889.06,849.47c-27.22-8.63-35.99-43.98-19.59-78.97,16.4-34.99,51.75-56.36,78.97-47.73,27.22,8.63,35.99,43.98,19.59,78.97-16.4,34.99-51.75,56.36-78.97,47.73Z"/>
  </g>
  <g>
    <path class="st0" d="M884.56,698.67l-13.98,14.14c-16.6,16.79-47.86,15.64-75.11-4.37-31.15-22.87-45.26-61.7-31.52-86.73l13.98-14.14c-13.74,25.03.37,63.85,31.52,86.72,27.25,20.01,58.52,21.17,75.11,4.38Z"/>
    <path class="st0" d="M777.92,607.57c13.74-25.03,50.12-26.78,81.27-3.91,31.15,22.87,45.26,61.69,31.52,86.72-13.74,25.03-50.12,26.79-81.27,3.91-31.15-22.87-45.26-61.69-31.52-86.72Z"/>
  </g>
  <circle class="st13" cx="910.77" cy="141.78" r="83.03" transform="translate(15.07 359.33) rotate(-22.5)"/>
  <polyline class="st6" points="872.86 152.93 892.79 172.86 950.6 114.25"/>
  <g>
    <path class="st10" d="M712.99,296.34s.02-1.42.23-3.94"/>
    <path class="st8" d="M714.18,284.34c3.82-25.12,19.88-82.53,87.2-101.87"/>
    <path class="st10" d="M805.34,181.4c1.27-.33,2.55-.64,3.86-.94"/>
  </g>
  <path class="st12" d="M431.88,581.36h-167.05c-6.71,0-12.13,5.41-12.13,12.09v69.4c0,6.7,5.41,12.09,12.13,12.09h67.03l4.43,7.68,12.05,20.87,12.07-20.87,4.41-7.68h67.07c6.67,0,12.11-5.39,12.11-12.09v-69.4c0-6.69-5.44-12.09-12.11-12.09Z"/>
  <line class="st9" x1="303.29" y1="628.78" x2="393.41" y2="628.78"/>
</svg>