<?xml version="1.0" encoding="UTF-8"?>
<svg id="Layer_1" xmlns="http://www.w3.org/2000/svg" version="1.1" viewBox="0 0 1000 1000">
  <!-- Generator: Adobe Illustrator 30.0.0, SVG Export Plug-In . SVG Version: 2.1.1 Build 123)  -->
  <defs>
    <style>
      .st0 {
        fill: #cecac6;
      }

      .st1 {
        fill: #010101;
      }

      .st2 {
        stroke: #1d1d1b;
      }

      .st2, .st3, .st4 {
        fill: none;
        stroke-width: 2px;
      }

      .st5 {
        fill: #10101a;
      }

      .st6 {
        fill: #1d1d1b;
      }

      .st7 {
        fill: #ccc;
      }

      .st3 {
        stroke: #10101a;
        stroke-linecap: round;
        stroke-linejoin: round;
      }

      .st8 {
        fill: #fff;
      }

      .st4 {
        stroke: #010101;
      }

      .st9 {
        fill: #fccd42;
      }
    </style>
  </defs>
  <path class="st9" d="M351.67,565.96v.05c0,161.63,131.53,293.11,293.18,293.11,152.69,0,278.35-117.34,291.85-266.54h52.55l-108.92-130.39-103.6,130.39h52.95c-12.99,90.44-90.8,160.28-184.82,160.28-103.07,0-186.92-83.82-186.92-186.84v-.03c0-49.91,19.41-96.85,54.74-132.13,35.05-35.07,81.62-54.45,131.22-54.69v-106.26c-77.96.23-151.22,30.66-206.4,85.79-55.34,55.36-85.82,128.96-85.82,207.26Z"/>
  <ellipse class="st1" cx="82.84" cy="797.57" rx="72.08" ry="147.66"/>
  <g>
    <path class="st0" d="M111.34,871.1l99.26-69.41,160.3,25.44,241.72-141.21-27.99-72.52,160.98-105.32c20.4-15.2,25.57-43.59,11.84-65.01l-7.43-11.59-296.42,146.3h-184.47l-212.46,97.96-4.12,5.36c-67.97,116.94,58.8,190,58.8,190Z"/>
    <path class="st2" d="M231.07,729.26h0c61.74-31.14,109-85,131.85-150.27"/>
    <path class="st6" d="M301.82,699.25l24.78,29.19c12.85,15.14,33.19,21.67,52.45,16.86h0c6.39-1.6,12.42-4.39,17.77-8.23l453.12-325.03c12.76-9.15,17.11-26.15,10.31-40.31h0c-3.74-7.78-10.43-13.75-18.6-16.57l-56.77-19.62c-9.86-3.41-20.75-1.85-29.27,4.17l-448.49,317.45c-13.78,9.75-16.23,29.22-5.31,42.09Z"/>
    <polygon class="st8" points="310.87 666.49 766.24 343.33 836.75 369.77 352 714.97 310.87 666.49"/>
    <path class="st0" d="M462.5,610.86l55.98,131.04-115.77,61.07-11.45-54.7,40.71-20.36-3.59-41.9c-2.51-29.29,10.42-57.76,34.12-75.14h0Z"/>
    <path class="st0" d="M565.55,556.15l55.98,131.04-115.77,61.07-11.45-54.7,40.71-20.36-3.59-41.9c-2.51-29.29,10.42-57.76,34.12-75.14h0Z"/>
    <path class="st0" d="M700.91,522.42l-55.01,131.44-90.93,2.73,68.27-106.31c19.26-22.2,48.7-32.76,77.68-27.87h0Z"/>
    <line class="st2" x1="486.67" y1="664.29" x2="518.47" y2="741.9"/>
    <line class="st2" x1="583.36" y1="593.05" x2="608.44" y2="655.63"/>
    <path class="st0" d="M192.79,688.46h0c67.74-13.88,127.47-53.47,166.62-110.47l25.48-37.1,35.62-7.63h0c10.7,23.55,37.95,34.62,62.04,25.22l9.2-3.59-19.08-90.33h-166.66l-137.4,164.11,24.17,59.79Z"/>
  </g>
  <g>
    <line class="st4" x1="577.7" y1="178.21" x2="577.7" y2="217.08"/>
    <line class="st4" x1="597.14" y1="197.64" x2="558.26" y2="197.64"/>
  </g>
  <g>
    <line class="st4" x1="745.62" y1="671.19" x2="745.63" y2="753.93"/>
    <line class="st4" x1="787" y1="712.55" x2="704.25" y2="712.56"/>
  </g>
  <g>
    <path class="st7" d="M556.86,432.31c-38.87-16.22-47.12-69.3-18.44-118.59,28.69-49.28,83.43-76.09,122.3-59.87,38.87,16.22,47.13,69.31,18.44,118.58-28.68,49.29-83.44,76.09-122.31,59.87Z"/>
    <g>
      <path class="st5" d="M673.85,261.58l22.93,18.28c27.23,21.7,30.42,67.74,5.32,110.86-28.68,49.29-83.44,76.08-122.31,59.86l-22.93-18.28c38.87,16.22,93.62-10.58,122.31-59.87,25.1-43.11,21.91-89.15-5.32-110.86Z"/>
      <path class="st3" d="M571.26,407.56c-28.08-11.72-34.04-50.08-13.32-85.69,20.73-35.61,60.3-54.98,88.37-43.26,28.08,11.71,34.05,50.08,13.32,85.69-20.72,35.61-60.28,54.98-88.37,43.26Z"/>
    </g>
  </g>
  <g>
    <path class="st7" d="M667.37,80.25c23.02-35.27,76.72-33.73,119.96,3.43,43.24,37.17,59.65,95.88,36.63,131.15-23.02,35.27-76.72,33.74-119.96-3.43-43.25-37.17-59.65-95.88-36.63-131.15Z"/>
    <g>
      <path class="st5" d="M813.97,226.33l-22.14,19.22c-26.29,22.82-72.14,17.59-109.98-14.93-43.25-37.17-59.64-95.88-36.62-131.16l22.14-19.23c-23.01,35.27-6.62,93.99,36.63,131.15,37.83,32.52,83.68,37.76,109.97,14.93Z"/>
      <path class="st3" d="M689.09,98.91c16.63-25.48,55.43-24.37,86.68,2.48,31.25,26.86,43.1,69.29,26.47,94.77-16.62,25.48-55.44,24.38-86.69-2.48-31.25-26.85-43.1-69.28-26.47-94.76Z"/>
    </g>
  </g>
</svg>