<?xml version="1.0" encoding="UTF-8"?>
<svg id="Layer_1" xmlns="http://www.w3.org/2000/svg" version="1.1" viewBox="0 0 1000 1000">
  <!-- Generator: Adobe Illustrator 30.0.0, SVG Export Plug-In . SVG Version: 2.1.1 Build 123)  -->
  <defs>
    <style>
      .st0 {
        fill: #ffd04c;
      }

      .st1 {
        stroke: #a0b0c2;
      }

      .st1, .st2, .st3 {
        stroke-width: 2px;
      }

      .st1, .st4, .st5, .st6 {
        fill: #fff;
      }

      .st7 {
        stroke: #010101;
      }

      .st7, .st8, .st9, .st2, .st10, .st3, .st11 {
        fill: none;
      }

      .st7, .st8, .st9, .st2, .st5, .st6, .st11 {
        stroke-linecap: round;
        stroke-linejoin: round;
      }

      .st7, .st8, .st9, .st6, .st11 {
        stroke-width: 1.6px;
      }

      .st8, .st2, .st5, .st6 {
        stroke: #10101a;
      }

      .st9, .st3 {
        stroke: #fff;
      }

      .st10 {
        stroke: #468ecc;
        stroke-miterlimit: 10;
        stroke-width: .28px;
      }

      .st5 {
        stroke-width: 1.6px;
      }

      .st12 {
        fill: #222;
      }

      .st11 {
        stroke: #222;
      }

      .st13 {
        fill: #131313;
      }

      .st14 {
        fill: #a0b0c2;
      }
    </style>
  </defs>
  <g>
    <rect class="st1" x="5.6" y="149.24" width="874.37" height="476.58" rx="9.6" ry="9.6"/>
    <path class="st14" d="M879.97,194.8v-11.54c0-18.78-15.23-34.01-34.02-34.01H39.62c-18.79,0-34.01,15.23-34.01,34.01v11.54h874.37Z"/>
    <line class="st3" x1="33.54" y1="170.99" x2="45.17" y2="170.99"/>
    <line class="st3" x1="58.19" y1="170.99" x2="69.82" y2="170.99"/>
    <line class="st3" x1="82.84" y1="170.99" x2="94.47" y2="170.99"/>
  </g>
  <g>
    <path class="st11" d="M660.02,310.46s90.26-7.09,87.99-51.89c-2.27-44.79-63.84-165.46-174.12-157.24-110.28,8.23-136.44,71.1-176.6,78.97-40.16,7.87-81.38-32.28-108.03-32.64-26.66-.36-36.24,39.83-62.19,38.65-25.95-1.17-57.67-23.06-82.05-11.45-24.38,11.61-44.3,72.78,34.91,153.13,79.21,80.35,163.95,159.81,216.52,174.15,52.57,14.34,263.59-191.68,263.59-191.68Z"/>
    <path class="st13" d="M666.48,315.29s96.58-12.74,96.68-61.05c.1-48.31-58.74-175.33-176.72-160.24-117.98,15.09-149.39,84.54-192.63,95.3-43.24,10.76-84.91-30.33-113.29-29.23-28.39,1.11-40.86,45.1-68.45,45.29-27.59.19-60.16-21.7-86.79-7.78-26.63,13.92-51.29,81.19,28.6,163.62,79.9,82.43,165.74,163.59,220.95,176.15,55.21,12.56,291.65-222.06,291.65-222.06Z"/>
    <path class="st14" d="M521.87,329.35c-13.99-1.64-45.38-12.08-74.17-22.45-37.24-13.42-78.76-6.69-109.85,17.82l-191.34,150.86c-32.74,26.04-41.52,71.87-20.69,108.03h0c15.17,26.33,43.37,42.57,73.9,42.57h445.17l39.96-141.42c18.32-64.83-23.11-131.83-89.49-143.35-.59-.1-1.17-.2-1.76-.3l-71.73-11.76Z"/>
    <g>
      <path class="st6" d="M512.66,427.2l-17.5-10.75c-33.62-20.66-46.07-63.47-28.76-98.93l45.44-93.13,91.9,56.47-68.16,139.68c-4.17,8.55-14.81,11.65-22.92,6.66Z"/>
      <path class="st6" d="M513.55,265.15c13.57,57.72,56.84,87.35,56.84,87.35,10.88,7.79,23.48,12.83,36.73,14.71h0c45.13,6.39,86.99-24.74,93.86-69.79l9.37-61.47c5.26-34.52-11.72-68.64-42.43-85.25h0l-.89.86c-40.48,38.85-94.85,59.85-150.94,58.3h0"/>
      <path class="st4" d="M490,184.93c-7.58,17.61.55,38.03,18.16,45.61,17.61,7.58,38.03-.55,45.61-18.16,7.58-17.61-.55-38.03-18.16-45.61-17.61-7.58-38.03.55-45.61,18.16Z"/>
      <path class="st8" d="M529.99,206.01s2.83-20.76-8.65-28.15"/>
      <path class="st8" d="M624.87,304.92l-41.69-32.53s-13.8,25.89-.54,38.23c13.26,12.34,42.23-5.69,42.23-5.69Z"/>
      <path class="st12" d="M680.13,271.99c1.94-1.72,4.97-1.3,6.62.56,2.24,2.52,3.26,6.14,2.83,9.46-.04.29-.14.54-.19.81.24.93.31,1.91.13,2.88-.27,1.41-.71,2.8-1.66,3.91-1.17,1.37-2.57,2.43-4.38,2.77-1.94.37-3.78-.15-5.46-1.1-1.36-.77-2.32-2.02-3.1-3.34-1.47-2.49-1.58-5.71-.63-8.39,1.09-3.08,3.45-5.45,5.84-7.56Z"/>
      <path class="st12" d="M632.76,239.56c1.34-.65,2.87-.52,4.15.16.58.24,1.06.62,1.44,1.13.52.64.85,1.36.99,2.17.82,2.65.52,5.77-.47,8.33-.4,1.05-.97,2.08-1.63,3.01-.27.52-.57,1.01-.9,1.48-1.26,1.79-3.2,3.41-5.31,4.1-.75.34-1.54.48-2.36.41-.65-.03-1.25-.22-1.79-.57-1.34-.71-2.09-1.83-2.44-3.3-1.58-6.7,2.2-13.96,8.29-16.93Z"/>
      <path class="st8" d="M667.36,245.9c-20.13,24.48-15.88,38.04-15.88,38.04"/>
      <path class="st8" d="M664.92,220.89s-16.36-13.57-33.36-7.53"/>
      <path class="st8" d="M695.22,243.99s13.56-9.49,28.49,20.06"/>
    </g>
    <line class="st9" x1="280.61" y1="530.56" x2="396.79" y2="476.34"/>
    <line class="st9" x1="231.23" y1="528.05" x2="298.04" y2="533.61"/>
  </g>
  <g>
    <path class="st13" d="M988.66,667.48l-173.79-165.97c-1.65-1.85-3.43-3.52-5.35-5.11l-1.71-1.63s-.06.02-.18.07c-8.2-6.13-18.25-9.89-29.28-9.89s-21.08,3.76-29.27,9.89c-.11-.05-.19-.07-.19-.07l-1.71,1.63c-1.9,1.59-3.7,3.26-5.35,5.11l-173.77,165.97c-3.84,3.84-5.75,8.88-5.75,13.91v196.38c0,16.27,13.2,29.46,29.46,29.46h373.17c16.27,0,29.46-13.19,29.46-29.46v-196.38c0-5.03-1.9-10.07-5.73-13.91Z"/>
    <circle class="st10" cx="778.35" cy="720.65" r="98.2" transform="translate(-281.6 761.45) rotate(-45)"/>
    <path class="st5" d="M964.94,848.3v-225.87l-108.02-108.01h-235.69c-16.26,0-29.46,13.19-29.46,29.46v304.42h373.17Z"/>
    <path class="st0" d="M964.94,907.23h-373.17c-16.26,0-29.46-13.19-29.46-29.46v-196.41l402.63,225.87Z"/>
    <path class="st0" d="M591.76,907.23h373.17c16.27,0,29.46-13.19,29.46-29.46v-196.41l-402.63,225.87Z"/>
    <path class="st14" d="M856.61,515.25v78.24c0,16.14,13.12,29.22,29.3,29.22h78.13l-107.42-107.46Z"/>
  </g>
  <line class="st8" x1="772.89" y1="805.5" x2="581.98" y2="899.78"/>
  <g>
    <line class="st2" x1="657" y1="645.76" x2="868.94" y2="645.76"/>
    <line class="st2" x1="657" y1="669.98" x2="905.28" y2="669.98"/>
    <line class="st2" x1="657" y1="694.2" x2="798.72" y2="694.2"/>
  </g>
  <g>
    <path class="st4" d="M302.07,534.65c.07-.73.43-1.39,1-1.84.57-.45,1.32-.66,2.02-.56l182.29,23.23c8.05-10.99,21.87-28.92,45.66-58.53,3.53-4.39,8.79-6.91,14.43-6.91h2.78l2.18-2.77c4.51-5.74,11.97-8.27,19.15-6.49l5.2-4.33c6.69-5.58,16.5-5.7,23.37-.3l1.81,1.47c.07.02.15,0,.22.04l52.66,19.74c.54.2,1.01.58,1.32,1.07l36.8,57.44c.64.99.55,2.28-.2,3.18-2.49,2.99-8.08,7.01-15.34,7.01-3.2,0-6.72-.78-10.44-2.76-3.85-2.06-7.02-4.24-9.67-6.35l10.76,27.21c.53,1.34-.08,2.86-1.4,3.45-1.42.64-10.92,4.77-19.21,4.77-3.04,0-5.89-.59-8.15-2.08-3.06,2.02-7.19,3.8-11.59,3.8-3.53,0-7.23-1.15-10.64-4.26-2.65-2.41-5.1-5.23-7.28-8.1-.06.75-.31,1.47-.93,1.95-2.38,1.83-5.89,3.83-9.59,4.7-.05.08-.07.18-.14.26-.98,1.19-24.24,29.22-44.34,33.24-22.44,4.49-54.81,4.54-56.17,4.54h-202.84c-.76,0-1.49-.32-2-.89-.51-.56-.76-1.32-.68-2.08l8.97-88.86Z"/>
    <g>
      <line class="st7" x1="304.76" y1="534.92" x2="487.85" y2="558.26"/>
      <path class="st7" d="M478.88,573.52c0-4.46,41.92-57.01,56.28-74.88,3.01-3.74,7.54-5.9,12.33-5.9h4.09l2.99-3.8c4.13-5.26,11.12-7.35,17.46-5.24l.2.07,6.3-5.25c5.75-4.79,14.06-4.9,19.93-.28l27.79,22.6c5.77,4.69,10.24,10.79,12.97,17.71l26.35,66.64s-17.95,8.08-25.13,2.69"/>
      <path class="st7" d="M588.37,495.43l20.59,21.8c6.55,6.94,11.63,15.13,14.94,24.08l16.53,44.78s-11.67,10.77-21.54,1.79c-9.87-8.98-17.05-24.23-17.05-24.23"/>
      <path class="st7" d="M562.34,511.59c1.99.99,11.69,9.43,19.95,16.75,8.06,7.15,13.95,16.41,17.03,26.74l7.9,26.51s-11.67,8.98-17.95,1.8c-6.28-7.18-21.54-27.82-21.54-27.82l-18.85-13.46"/>
      <path class="st7" d="M598.25,586.98s-24.6,28.43-43.98,32.31c-22.44,4.49-55.65,4.49-55.65,4.49h-202.84"/>
      <path class="st7" d="M604.53,480.18l49.36,19.75,36.8,57.44s-8.98,10.77-22.44,3.59c-13.46-7.18-18.85-16.16-18.85-16.16"/>
      <path class="st7" d="M560.55,552.87s-1.79,0-9.42,12.57"/>
    </g>
  </g>
</svg>