<?xml version="1.0" encoding="UTF-8"?>
<svg id="Layer_1" xmlns="http://www.w3.org/2000/svg" version="1.1" viewBox="0 0 1000 1000">
  <!-- Generator: Adobe Illustrator 30.0.0, SVG Export Plug-In . SVG Version: 2.1.1 Build 123)  -->
  <defs>
    <style>
      .st0 {
        stroke: #010101;
      }

      .st0, .st1, .st2, .st3, .st4, .st5, .st6, .st7, .st8 {
        stroke-width: 2px;
      }

      .st0, .st2, .st3, .st9, .st5 {
        fill: #fff;
      }

      .st0, .st3, .st4, .st5, .st7 {
        stroke-linecap: round;
        stroke-linejoin: round;
      }

      .st1, .st2 {
        stroke: #a0b0c2;
      }

      .st1, .st4, .st6, .st7, .st8 {
        fill: none;
      }

      .st3, .st4 {
        stroke: #10101a;
      }

      .st5, .st7 {
        stroke: #131313;
      }

      .st6, .st8 {
        stroke: #fff;
      }

      .st10 {
        fill: #fccd42;
      }

      .st11 {
        fill: #131313;
      }

      .st8 {
        stroke-miterlimit: 10;
      }

      .st12 {
        fill: #a0b0c2;
      }
    </style>
  </defs>
  <path class="st11" d="M992.56,709.68l-9.55-193.69c-1.89-38.42-26.75-71.9-62.97-84.84l-188.77-67.42c-34.07-12.17-72.08-3.94-98.08,21.21l-69.83,67.58,146.69,202.83,282.51,54.33Z"/>
  <rect class="st2" x="42.01" y="66.32" width="665.85" height="867.35" rx="9.6" ry="9.6"/>
  <path class="st12" d="M707.86,114.51v-12.21c0-19.87-16.11-35.98-35.98-35.98H77.99c-19.87,0-35.98,16.11-35.98,35.98v12.21h665.84Z"/>
  <line class="st6" x1="71.56" y1="89.32" x2="83.86" y2="89.32"/>
  <line class="st6" x1="97.63" y1="89.32" x2="109.94" y2="89.32"/>
  <line class="st6" x1="123.71" y1="89.32" x2="136.01" y2="89.32"/>
  <g>
    <circle class="st12" cx="177.19" cy="407.62" r="39.42" transform="translate(-240.55 559.44) rotate(-86.48)"/>
    <circle class="st12" cx="177.19" cy="517.52" r="39.43"/>
    <circle class="st12" cx="177.19" cy="627.42" r="39.43"/>
  </g>
  <rect class="st10" x="230.61" y="707.7" width="508.15" height="140.18" rx="13.49" ry="13.49"/>
  <circle class="st6" cx="304.33" cy="777.79" r="42.35"/>
  <polyline class="st6" points="285.37 778.17 285.37 778.17 297.05 789.85 322.78 764.11"/>
  <line class="st6" x1="380.75" y1="755.16" x2="543.09" y2="755.16"/>
  <line class="st6" x1="447.7" y1="788.03" x2="380.75" y2="788.03"/>
  <line class="st6" x1="630.7" y1="788.03" x2="465.96" y2="788.03"/>
  <path class="st1" d="M193.33,248.85h336.79c32.97,0,59.7,26.73,59.7,59.7v330.08"/>
  <polyline class="st1" points="631.12 600.02 589.82 641.32 548.52 600.02"/>
  <line class="st1" x1="233.02" y1="391.99" x2="297.27" y2="391.99"/>
  <line class="st1" x1="340.34" y1="424.86" x2="233.02" y2="424.86"/>
  <line class="st1" x1="492.27" y1="424.86" x2="358.6" y2="424.86"/>
  <line class="st1" x1="233.02" y1="501.89" x2="376.63" y2="501.89"/>
  <line class="st1" x1="393.42" y1="534.76" x2="233.02" y2="534.76"/>
  <line class="st1" x1="492.27" y1="534.76" x2="411.67" y2="534.76"/>
  <line class="st1" x1="233.02" y1="611.79" x2="318.22" y2="611.79"/>
  <line class="st1" x1="299.97" y1="644.66" x2="233.02" y2="644.66"/>
  <line class="st1" x1="432.12" y1="644.66" x2="318.22" y2="644.66"/>
  <g>
    <g>
      <path class="st11" d="M863.9,373.11s23.18,1.35,30.45-7.99c7.27-9.34,9.84-21.14,18.94-27.14,9.1-6,37.81,4.21,16.22-60.81-21.59-65.02-58.28-174.35-82.37-137.36-24.09,36.99-21.38,58.11-24.1,64.46-2.72,6.35-44.74,39.95-63.48,55.25-18.74,15.3-22.53,25.33-24.4,41.01-3.18,26.8,13.72,54.94,32.02,78.23,18.3,23.29,77.6,17.22,96.71-5.65Z"/>
      <path class="st5" d="M763.67,255.1s17.96,2.21,26.2,18.45c8.24,16.25,11.44,36.43,29.27,45.74,17.83,9.31,33.86-15.67,46.15-39.21,7.35-14.08-7.68-35.63,1.65-53.49.49-.94-6.69,3.67-18.69-14.53-11.99-18.21-17.83-36.78-17.83-36.78,0,0-30.05,39.26-39.15,45.25-9.1,6-25.8,12.81-25.8,12.81,0,0-6.78,8.41-1.8,21.75Z"/>
      <path class="st7" d="M830.4,179.4c-.91-18.11,4.89-36.47,16.03-50.78"/>
      <path class="st9" d="M781.6,310.97c-9.95-3.28-19.47-12.96-23.11-23.5l-7.48,21.99c-3.33,9.78,10.6,21.48,17.43,14.65l13.15-13.14Z"/>
      <path class="st4" d="M886.97,315.49c3.32-7.06,9.98-12.45,17.57-14.22"/>
      <path class="st4" d="M821.06,252.45c1.14-6.54-4.37-13.44-11-13.78"/>
      <path class="st4" d="M834.78,230.96c-2.92-2.79-6.29-5.12-9.94-6.87"/>
      <path class="st0" d="M882.21,430.95c-14.52-25.59-.8-88.14-.8-88.14,0,0,39.73-34.61,38.54-48.47-1.19-13.86-40.05-1.65-40.05-1.65,0,0-18.4,69.82-41.55,84.2-23.15,14.39-72.86-7.95-72.86-7.95,0,0-.58,34.92-14.29,79.95,47.35,3.98,92.45-2.23,131.01-17.94Z"/>
    </g>
    <path class="st11" d="M768.66,524.94l182.52,105.75c36.93,27.16,52.14,75.03,37.66,118.52l-1.46,4.39c-14.65,43.98-56.24,73.27-102.59,72.25h0c-34.29-.76-66.07-18.1-85.26-46.53l-128.07-174.63,97.2-79.75Z"/>
    <g>
      <path class="st3" d="M712.19,462.04l-110.2-91.6c-8.95-7.44-21.33-9.18-31.97-4.5h0l-37.29-24.12c-8.98-5.81-20.92-3.77-27.45,4.7l-4.9,6.35-146.19-129.83h0c-9.75,14.12-8.88,33,2.12,46.17l105.41,126.12-29.3,35.29,17.15,18.58-64.8-1.01c-12.39-.19-21.86,10.98-19.64,23.17h0c1.65,9.05,9.36,15.75,18.55,16.11l71.17,2.84,31.57,19.62c40.05,24.89,88.55,32.29,134.21,20.47h0l47.78,65.87c31.53,43.46,99.4,30.69,112.97-21.26l7.22-27.65-76.41-85.33Z"/>
      <path class="st4" d="M566.07,383.49l-50.17,58.36,44.91,41.53,39.37-10.87h0c-6.41-12.58-18.31-21.46-32.2-24l-2.74-.5,15.23-10.44"/>
      <path class="st4" d="M526.94,371.35l-59.29,67.51,87.91,71.99,6.34-6.81c5.54-5.96,5.05-15.32-1.09-20.66h0"/>
      <path class="st4" d="M500.07,351.51l-67.66,79.1,70.82,74.04h0c9.72-6.87,13.16-19.7,8.18-30.51l-.13-.29"/>
    </g>
    <path class="st4" d="M500.36,352.87l-146.19-129.83h0c-9.75,14.12-8.88,33,2.12,46.17l105.41,126.12"/>
    <line class="st8" x1="910.72" y1="637.09" x2="793.59" y2="547.37"/>
  </g>
  <g>
    <circle class="st11" cx="107.95" cy="250.28" r="102.21" transform="translate(-145.35 149.64) rotate(-45)"/>
    <path class="st9" d="M167.23,300.17v-6.59c0-21.82-17.69-39.52-39.52-39.52h-39.52c-21.82,0-39.52,17.69-39.52,39.52v6.59h118.56Z"/>
    <path class="st9" d="M134.3,207.96c0,14.55-11.8,26.35-26.35,26.35s-26.35-11.8-26.35-26.35,11.8-26.35,26.35-26.35,26.35,11.79,26.35,26.35Z"/>
  </g>
</svg>