<?xml version="1.0" encoding="UTF-8"?>
<svg id="Layer_1" xmlns="http://www.w3.org/2000/svg" version="1.1" viewBox="0 0 1000 1000">
  <!-- Generator: Adobe Illustrator 30.0.0, SVG Export Plug-In . SVG Version: 2.1.1 Build 123)  -->
  <defs>
    <style>
      .st0 {
        fill: #cecac6;
      }

      .st1 {
        fill: #10101a;
      }

      .st2 {
        fill: #fff;
      }

      .st2, .st3, .st4 {
        stroke: #10101a;
        stroke-linejoin: round;
        stroke-width: 2px;
      }

      .st2, .st4 {
        stroke-linecap: round;
      }

      .st3, .st4 {
        fill: none;
      }

      .st5 {
        fill: #fccd42;
      }
    </style>
  </defs>
  <ellipse class="st1" cx="383.76" cy="762.46" rx="121.05" ry="30.11"/>
  <g>
    <polygon class="st0" points="379.45 440.02 268.57 579 490.33 579 379.45 440.02"/>
    <path class="st0" d="M437.65,765.71h0c-36.76,9.54-75.3,9.89-112.22,1.01l-4.18-1.01v-206.96h116.4v206.96Z"/>
  </g>
  <ellipse class="st1" cx="594.93" cy="882.68" rx="140.21" ry="35.16"/>
  <g>
    <polygon class="st5" points="609.79 82.16 453.09 278.56 766.49 278.56 609.79 82.16"/>
    <path class="st5" d="M692.04,877.81h0c-51.95,13.49-106.41,13.97-158.59,1.42l-5.91-1.42V249.94h164.5v627.87Z"/>
  </g>
  <g>
    <ellipse class="st1" cx="126.52" cy="859.36" rx="122.77" ry="47.38" transform="translate(-6.72 1.02) rotate(-.45)"/>
    <g>
      <path class="st2" d="M133.44,648.75l-87.01,212.76,27.7,9.66c33.74,11.77,70.65,10.52,103.51-3.5h0c.14-.25,82.98-267.59,73.34-305.87-9.82-39.01-43.63-162.27-43.98-163.51-.38-1.4-1.75-2.29-3.19-2.07-.92.14-22.63,3.75-25,21.78-1.75,13.34-3.42,60.48-3.98,77.67-11.36-10.8-41-40.93-53.61-72.27-.58-1.47-2.24-2.18-3.71-1.58-.83.33-1.38,1.03-1.62,1.83-.33-.19-.69-.34-1.07-.39-.07,0-.14.02-.21.02,2.69-3.89,5.86-8.37,9.31-13.02,7.39-9.95,10.27-19.46,8.55-28.27-2.27-11.65-11.81-17.57-12.19-17.82-.08-.05-.17-.05-.26-.09.32-.36.66-.74.96-1.07,18.67-20.49-.96-52.37-1.8-53.73-.5-.78-1.32-1.28-2.23-1.33-.92-.06-1.8.32-2.39,1.03l-21.55,26.16c-.27-7.69-1.61-35.58-6.81-44.61-5.94-10.3-26.13-18.59-26.98-18.95-.86-.34-1.83-.26-2.61.24-.78.49-1.27,1.34-1.31,2.26l-5.64,112.55c-.02.33.08.64.17.94l-14.14,17.17c-.47.57-.7,1.29-.64,2.03,0,0,9.55,125.92,9.87,126.35l88.52,115.63Z"/>
      <line class="st4" x1="93.52" y1="334.96" x2="34.87" y2="406.11"/>
      <path class="st4" d="M38.98,454.64c15.92-19.42,62.24-75.69,77.68-91.69"/>
      <path class="st4" d="M61.87,471.15l55.8-50.19s13,20.03,6.6,33.41c-6.39,13.38-30.82,38.12-30.82,38.12l6.64,30.01s39.82,7.67,63.17,43.22"/>
    </g>
  </g>
  <g>
    <ellipse class="st1" cx="873.48" cy="859.36" rx="47.38" ry="122.77" transform="translate(7.31 1726.09) rotate(-89.55)"/>
    <g>
      <path class="st2" d="M866.56,648.75l87.01,212.76-27.7,9.66c-33.74,11.77-70.65,10.52-103.51-3.5h0c-.14-.25-82.98-267.59-73.34-305.87,9.82-39.01,43.63-162.27,43.98-163.51.38-1.4,1.75-2.29,3.19-2.07.92.14,22.63,3.75,25,21.78,1.75,13.34,3.42,60.48,3.98,77.67,11.36-10.8,41-40.93,53.61-72.27.58-1.47,2.24-2.18,3.71-1.58.83.33,1.38,1.03,1.62,1.83.33-.19.69-.34,1.07-.39.07,0,.14.02.21.02-2.69-3.89-5.86-8.37-9.31-13.02-7.39-9.95-10.27-19.46-8.55-28.27,2.27-11.65,11.81-17.57,12.19-17.82.08-.05.17-.05.26-.09-.32-.36-.66-.74-.96-1.07-18.67-20.49.96-52.37,1.8-53.73.5-.78,1.32-1.28,2.24-1.33.92-.06,1.8.32,2.39,1.03l21.55,26.16c.27-7.69,1.61-35.58,6.81-44.61,5.94-10.3,26.13-18.59,26.98-18.95.86-.34,1.83-.26,2.61.24.78.49,1.27,1.34,1.31,2.26l5.64,112.55c.02.33-.08.64-.17.94l14.14,17.17c.47.57.7,1.29.64,2.03,0,0-9.55,125.92-9.87,126.35l-88.52,115.63Z"/>
      <line class="st4" x1="906.48" y1="334.96" x2="965.13" y2="406.11"/>
      <path class="st4" d="M961.02,454.64c-15.92-19.42-62.24-75.69-77.68-91.69"/>
      <path class="st4" d="M938.13,471.15l-55.8-50.19s-13,20.03-6.6,33.41c6.39,13.38,30.82,38.12,30.82,38.12l-6.64,30.01s-39.82,7.67-63.17,43.22"/>
    </g>
  </g>
  <g>
    <g>
      <polyline class="st3" points="264.52 223.24 301.69 186.07 338.85 223.23"/>
      <line class="st3" x1="301.68" y1="190.36" x2="301.68" y2="369.51"/>
    </g>
    <line class="st3" x1="301.68" y1="385.42" x2="301.68" y2="407.88"/>
    <line class="st3" x1="301.68" y1="423.43" x2="301.68" y2="438.82"/>
  </g>
  <g>
    <polyline class="st3" points="405.54 373.67 442.71 336.5 479.88 373.66"/>
    <line class="st3" x1="442.71" y1="340.78" x2="442.71" y2="465.88"/>
  </g>
  <g>
    <g>
      <polyline class="st3" points="776.91 166.83 814.08 129.66 851.24 166.82"/>
      <line class="st3" x1="814.07" y1="133.95" x2="814.07" y2="259.04"/>
    </g>
    <line class="st3" x1="814.07" y1="274.95" x2="814.07" y2="297.41"/>
    <line class="st3" x1="814.07" y1="312.96" x2="814.07" y2="328.35"/>
  </g>
</svg>