<?xml version="1.0" encoding="UTF-8"?>
<svg id="Layer_1" xmlns="http://www.w3.org/2000/svg" xmlns:xlink="http://www.w3.org/1999/xlink" version="1.1" viewBox="0 0 1000 1000">
  <!-- Generator: Adobe Illustrator 30.0.0, SVG Export Plug-In . SVG Version: 2.1.1 Build 123)  -->
  <defs>
    <style>
      .st0 {
        stroke: #282d33;
      }

      .st0, .st1, .st2, .st3 {
        stroke-width: 2px;
      }

      .st0, .st4, .st2 {
        fill: none;
      }

      .st5 {
        fill: url(#linear-gradient1);
      }

      .st1, .st6, .st4, .st2 {
        stroke: #000;
      }

      .st1, .st6, .st4, .st2, .st3 {
        stroke-linecap: round;
        stroke-linejoin: round;
      }

      .st1, .st6, .st7, .st3 {
        fill: #fff;
      }

      .st6, .st4 {
        stroke-width: 2.26px;
      }

      .st8 {
        fill: url(#linear-gradient);
      }

      .st9 {
        fill: #080717;
      }

      .st3 {
        stroke: #080717;
      }

      .st10 {
        fill: #ffcd00;
      }

      .st11 {
        fill: #222;
      }
    </style>
    <linearGradient id="linear-gradient" x1="276.86" y1="778.78" x2="278.2" y2="878.14" gradientTransform="translate(16)" gradientUnits="userSpaceOnUse">
      <stop offset="0" stop-color="#babcc1"/>
      <stop offset=".27" stop-color="#d8d7d8"/>
      <stop offset=".38" stop-color="#e5e5e6"/>
      <stop offset=".6" stop-color="#fbfcff"/>
      <stop offset=".72" stop-color="#dfe0e3"/>
      <stop offset=".78" stop-color="#d2cdd0"/>
      <stop offset="1" stop-color="#f5f6f9"/>
    </linearGradient>
    <linearGradient id="linear-gradient1" x1="10.09" y1="544.61" x2="522.69" y2="544.61" gradientTransform="translate(16)" gradientUnits="userSpaceOnUse">
      <stop offset="0" stop-color="#b0b2b4"/>
      <stop offset=".18" stop-color="#9c9da1"/>
      <stop offset=".57" stop-color="#d0d1d3"/>
      <stop offset=".96" stop-color="#d8d9db"/>
    </linearGradient>
  </defs>
  <g>
    <path class="st1" d="M551.23,806.25l247.44-142.89c2.26-1.3,4.99-1.5,7.4-.53l90.6,36.37c6.26,2.51,7.23,10.97,1.69,14.83l-244.39,170.55c-2.89,2.02-6.73,2.04-9.65.05l-93.64-64.03c-5.16-3.53-4.86-11.23.55-14.35Z"/>
    <g>
      <path class="st9" d="M180.64,783.71l-11.41,52.7s-5.71,30.99,14.77,34.24c12.23,1.94,78.55,5.27,78.55,5.27,0,0,26.86,1.34,43.31,0,16.45-1.34,109.1-7.61,109.1-7.61v-2.02l-105.74-3.46s-23.83-3.02-23.5-30.88c.33-27.86,4.7-50.02,4.7-50.02l-109.77,1.78Z"/>
      <path class="st8" d="M187.68,781.69l-13.76,53.37s-3.36,25.18,8.72,27.86c12.09,2.69,79.23,9.4,79.23,9.4,0,0,26.85,1.34,43.3,0,16.45-1.35,109.1-6.04,109.1-6.04l-105.74-7.05s-23.84-3.02-23.5-30.88c.33-27.86,4.7-50.02,4.7-50.02l-102.05,3.36Z"/>
      <path class="st3" d="M188.36,781.69l-13.76,53.37s-3.36,25.18,8.73,27.86c12.09,2.69,79.22,9.4,79.22,9.4,0,0,26.86,1.34,43.31,0,16.45-1.35,109.1-6.04,109.1-6.04l-105.74-7.05s-23.83-3.02-23.5-30.88c.33-27.86,4.7-50.02,4.7-50.02l-102.05,3.36Z"/>
      <path class="st11" d="M286.28,813.25c1.26-20.36,4.13-34.92,4.13-34.92l-102.05,3.36-8.14,31.56h106.06Z"/>
      <path class="st9" d="M492.51,785.06l-376.03-.28-40.58-.03c-6.96,0-13.54-8.05-14.66-17.94L13.47,346.64c-1.13-9.89-.34-16.78,5.03-22.49l12.76-15.11,426.27,124.91c6.96,1.89,13.54,9.35,14.66,16.63l45.46,293.59,18.83,28.8c1.13,7.27-18.15,12.11-25.11,12.11h-18.85Z"/>
      <path class="st5" d="M538.52,766.53c1.21,7.8-3.87,14.12-11.34,14.12H91.72c-7.47,0-14.5-8.6-15.71-19.22L26.26,324.46c-1.21-10.62,3.87-17.57,11.34-15.54l435.46,118.7c7.47,2.04,14.5,10.01,15.71,17.81l49.74,321.09Z"/>
      <path class="st11" d="M90.78,779.38c-6.97,0-13.56-8.05-14.69-17.94L26.25,324.7c-1.13-9.89,3.63-16.39,10.6-14.5l436.24,118.38c6.97,1.89,13.56,9.35,14.69,16.62l49.83,321.31c1.13,7.27-3.63,13.19-10.6,13.18l-436.24-.32Z"/>
      <polygon class="st7" points="88.11 673.12 505.99 699.22 467.91 449.18 50.04 342.95 88.11 673.12"/>
      <g>
        <path class="st7" d="M91.72,777.64c-5.87,0-11.7-7.58-12.72-16.55l-5.88-51.6,456.51,19.46,5.9,38.05c.47,3.04-.22,5.82-1.95,7.84-1.55,1.81-3.83,2.81-6.41,2.81H91.72Z"/>
        <path class="st9" d="M76.52,712.65l450.52,19.2,5.52,35.6c.33,2.16-.11,4.08-1.26,5.42-.99,1.15-2.41,1.76-4.12,1.76H91.72c-3.84,0-8.82-5.93-9.72-13.88l-5.48-48.1M69.74,706.33l6.27,55.11c1.21,10.61,8.24,19.22,15.71,19.22h435.46c7.47,0,12.54-6.32,11.34-14.12l-6.27-40.49-462.5-19.71h0Z"/>
      </g>
    </g>
    <g>
      <polygon class="st11" points="584.63 798.99 565.05 810.39 586.78 825.75 606.45 813.83 584.63 798.99"/>
      <polygon class="st11" points="633.69 797.34 611.75 783.22 592.17 794.6 614.02 809.24 633.69 797.34"/>
      <polygon class="st11" points="660.92 780.9 638.86 767.49 619.29 778.85 641.26 792.77 660.92 780.9"/>
      <polygon class="st11" points="688.14 764.49 665.97 751.8 646.39 763.13 668.48 776.34 688.14 764.49"/>
      <polygon class="st11" points="715.35 748.11 693.06 736.14 673.49 747.44 695.7 759.94 715.35 748.11"/>
      <polygon class="st11" points="742.56 731.77 720.15 720.51 700.59 731.79 722.91 743.57 742.56 731.77"/>
      <polygon class="st11" points="769.77 715.47 747.24 704.93 727.68 716.18 750.13 727.24 769.77 715.47"/>
      <polygon class="st11" points="796.96 699.2 774.32 689.37 754.77 700.6 777.33 710.94 796.96 699.2"/>
      <polygon class="st11" points="824.16 682.96 801.39 673.85 781.84 685.06 804.52 694.68 824.16 682.96"/>
      <polygon class="st11" points="614.77 819.37 595.07 831.49 616.9 846.3 636.68 833.66 614.77 819.37"/>
      <polygon class="st11" points="622.36 814.71 644.3 828.8 664.09 816.19 642.06 802.61 622.36 814.71"/>
      <polygon class="st11" points="691.48 798.75 669.33 785.89 649.63 797.97 671.69 811.34 691.48 798.75"/>
      <polygon class="st11" points="718.86 781.35 696.6 769.21 676.9 781.26 699.08 793.91 718.86 781.35"/>
      <polygon class="st11" points="746.24 763.99 723.85 752.57 704.17 764.58 726.47 776.52 746.24 763.99"/>
      <polygon class="st11" points="773.61 746.66 751.11 735.95 731.43 747.94 753.84 759.17 773.61 746.66"/>
      <polygon class="st11" points="800.98 729.36 778.36 719.37 758.68 731.34 781.22 741.85 800.98 729.36"/>
      <polygon class="st11" points="828.34 712.1 805.6 702.83 785.93 714.77 808.58 724.56 828.34 712.1"/>
      <polygon class="st11" points="835.94 707.31 855.7 694.88 832.84 686.32 813.17 698.24 835.94 707.31"/>
      <polygon class="st11" points="625.22 851.83 647.14 866.08 667.04 852.73 645.04 838.99 625.22 851.83"/>
      <polygon class="st11" points="774 755.88 762.39 763.33 652.67 834.06 674.7 847.59 784.9 774 796.55 766.25 804.78 760.78 782.19 750.63 774 755.88"/>
      <polygon class="st11" points="789.81 745.74 812.44 755.69 832.32 742.49 809.61 733.06 789.81 745.74"/>
      <polygon class="st11" points="817.22 728.18 839.97 737.42 859.84 724.25 837.01 715.53 817.22 728.18"/>
      <polygon class="st11" points="864.41 698.03 844.62 710.66 867.49 719.18 887.36 706.03 864.41 698.03"/>
    </g>
    <g>
      <line class="st0" x1="761.99" y1="586.75" x2="752.78" y2="592.24"/>
      <line class="st0" x1="761.99" y1="586.75" x2="752.78" y2="592.24"/>
      <line class="st0" x1="762.54" y1="625.84" x2="753.18" y2="620.6"/>
      <line class="st0" x1="728.97" y1="645.86" x2="728.81" y2="635.13"/>
      <line class="st0" x1="694.84" y1="626.79" x2="704.06" y2="621.29"/>
      <line class="st0" x1="694.29" y1="587.7" x2="703.65" y2="592.94"/>
      <line class="st0" x1="727.87" y1="567.68" x2="728.01" y2="578.41"/>
    </g>
    <path class="st2" d="M841.41,597.79c0,4.83-3.91,8.74-8.74,8.74s-8.74-3.91-8.74-8.74,3.91-8.74,8.74-8.74,8.74,3.91,8.74,8.74Z"/>
    <g>
      <path class="st10" d="M523.54,444.85c-78.44,69.6-382.1,187.71-440.45,189.12l.22,9.95,3.53,30.6,328.18,19.02c85.98-38.4,213.35-93.99,245.47-122.48l-136.95-126.21Z"/>
      <path class="st9" d="M515.26,446.75c-10.82,13.7,13.55,50.97,54.44,83.24,40.88,32.27,82.79,47.32,93.61,33.62,10.82-13.7-13.55-50.97-54.44-83.24-40.88-32.27-82.79-47.32-93.61-33.62Z"/>
    </g>
    <g>
      <path class="st6" d="M277.76,647.57c20.73-7.12,53.74-26.14,29.77-88.64-18.9,13.08-41.38-9.28-45.78-43.73-7.06-55.15-63.15,1.29-63.15,1.29,0,0,27.36,76.44-20.47,91.66-6.18,1.97,52.84,55.48,99.62,39.42Z"/>
      <path class="st11" d="M141.8,463.04s-86.1-12.21-68.55-66.18c17.57-53.97,23.02-20.76,21.97-42.43-1.06-21.66-17.68-69.01,12.07-65.4,29.74,3.6,51.08-.67,79.58-20.89,28.48-20.21,42.41-33.56,55.28-2.17,12.89,31.39,11.41,27.18,46.21,27.02,34.8-.17,45.14,5.35,35.11,24.84-10.06,19.5-26.7,27.67-8.7,44.4,17.96,16.74,23.01,34.75,11.33,48.95-11.67,14.21-66.95,44.13-66.95,44.13l-117.34,7.73Z"/>
      <path class="st6" d="M268.26,409.97s25.56-20.78,33.37-8.01c7.78,12.79,6.98,36.43-2.17,48.84-9.16,12.42-19.76,29.45-30.27,3.85-10.52-25.59-.94-44.68-.94-44.68Z"/>
      <path class="st6" d="M124.36,476.02s-16.09-33.08,10.99-32.45c15.02.34,34.55,13.5,40.18,27.84,5.64,14.36,14.35,32.45-12.89,27.68-27.25-4.77-38.28-23.07-38.28-23.07Z"/>
      <path class="st11" d="M267.64,538.61c-3.64-7.54-6.2-15.87-7.36-24.97-7.32-56.74-67.46,1.57-67.46,1.57,0,0,24.96,60.07,2.89,82.51-1.05,1.06-8.86,4.87-2.83,2.95,35.41-7.51,63.38-31.58,74.76-62.06Z"/>
      <path class="st6" d="M132.35,438.93s28.07,73.48,66.78,97.93c26.12,16.48,61.29-2.23,78.91-44.23,17.27-41.13-4.18-175.36-44.14-150.21-39.99,25.15-9.19-26.86-30.23-8.46-21.03,18.4,22.33,77.81-71.33,104.98Z"/>
      <path class="st4" d="M197.49,475.03s22.38-19.56,27.29-20.01,6.67,23.76.35,29.44c-6.32,5.69-12.9,4.95-27.64-9.43Z"/>
      <path class="st4" d="M187.74,401.69s2.89,18.61-.67,34.71c-3.55,16.09,18.4,10.51,18.4,10.51"/>
      <path class="st4" d="M247.16,400.49s-7.84-9.57-20.14-3.19c-9.17,4.76-11.88,10.65-11.88,10.65"/>
      <path d="M228.35,405.78c.54,5.52,4.2,9.67,8.17,9.28,3.97-.39,6.75-5.18,6.21-10.69-.54-5.52-4.2-9.67-8.17-9.28-3.97.39-6.75,5.18-6.21,10.69Z"/>
    </g>
    <g>
      <g>
        <path class="st7" d="M623.97,558.37c-.45,0-.9-.1-1.31-.3-39.83-19.26-73.42-49.17-97.12-86.51l-4.29-6.75c-.45-.71-.58-1.57-.37-2.38.21-.81.75-1.49,1.49-1.89l61.88-33.01c58.47-31.18,114.1-68.31,165.34-110.35l1.07-.88c-.95-18.67,8.89-36.32,25.39-45.28l54.86-29.79c2.37-1.29,5.04-1.97,7.73-1.97,5.96,0,11.43,3.25,14.27,8.48l9.18,16.92c1.34,2.47,2.01,5.25,1.95,8.05,3.09,1.46,5.63,3.85,7.29,6.92l9.18,16.91c1.82,3.35,2.38,7.19,1.65,10.87,2.59,1.49,4.74,3.66,6.18,6.31l9.18,16.91c2.89,5.33,2.52,11.83-.8,16.78l5.61,10.34c2.07,3.81,2.53,8.19,1.3,12.35-1.23,4.16-4.01,7.58-7.81,9.65l-44.92,24.47c-6.6,3.59-14.03,5.49-21.5,5.49-4.42,0-8.79-.65-13.02-1.92-5.96,5.2-13.59,12.18-22.33,20.18-19.55,17.88-43.87,40.15-67.05,58.61-41.2,32.82-75.39,56.84-101.6,71.4-.45.25-.96.38-1.46.38Z"/>
        <path class="st9" d="M838.65,242.27c4.69,0,9.23,2.5,11.62,6.91l9.18,16.92c1.48,2.73,1.89,5.76,1.39,8.6,3.24.96,6.11,3.16,7.85,6.36l9.18,16.92c1.93,3.55,2.05,7.58.7,11.08,2.94,1.06,5.52,3.15,7.13,6.11l9.18,16.92c2.73,5.02,1.85,11.02-1.74,15.06l6.55,12.06c3.48,6.41,1.11,14.43-5.31,17.91l-44.92,24.47c-6.38,3.48-13.27,5.12-20.06,5.12-4.68,0-9.32-.78-13.71-2.29-18.85,16.29-56.25,52.49-90.56,79.82-40.04,31.89-74.13,56.1-101.18,71.13h0c-39.29-18.99-72.5-48.57-95.89-85.41l-4.29-6.75,61.88-33c58.78-31.35,114.33-68.42,165.83-110.68l2.27-1.86c-1.47-17.51,7.28-35.05,23.72-43.98l54.86-29.79c2-1.09,4.16-1.6,6.29-1.6M838.65,236.25c-3.18,0-6.35.81-9.17,2.33l-54.86,29.79c-17.07,9.27-27.43,27.29-27.02,46.54-51.06,41.88-106.49,78.87-164.76,109.95l-61.88,33c-1.48.79-2.56,2.16-2.99,3.78-.43,1.62-.16,3.35.74,4.76l4.29,6.75c24.01,37.82,58.02,68.11,98.36,87.61.83.4,1.73.6,2.62.6,1.01,0,2.02-.25,2.93-.76,26.37-14.65,60.69-38.76,102.01-71.68,23.26-18.53,47.63-40.83,67.21-58.75,8.13-7.44,15.3-14,21.04-19.05,4,1.05,8.11,1.59,12.26,1.59,7.97,0,15.9-2.03,22.94-5.86l44.92-24.47c4.51-2.45,7.8-6.51,9.26-11.44,1.46-4.93.91-10.13-1.54-14.64l-4.79-8.83c3.02-5.63,3.11-12.53-.02-18.29l-9.18-16.92c-1.37-2.53-3.28-4.69-5.57-6.36.32-3.72-.44-7.48-2.26-10.83l-9.18-16.92c-1.66-3.06-4.07-5.56-6.98-7.31-.21-2.67-.98-5.28-2.26-7.65l-9.18-16.92c-3.37-6.21-9.85-10.06-16.92-10.06h0Z"/>
      </g>
      <path class="st7" d="M792.44,384.72l-1.71-3.15,76.84-41.72c11.45-6.36,19.47-3.98,22.95,2.43l9.18,16.92c3.48,6.41,1.11,14.43-5.31,17.91l-44.92,24.47c-20.4,11.11-45.95,3.56-57.04-16.85Z"/>
      <g>
        <path class="st11" d="M908.21,434.5c10.1-4.9,14.31-17.06,9.4-27.16l-17.89-36.83-69.29-142.71c15.01-20.75,18.43-48.87,6.46-73.52-12.62-25.98-38.83-40.86-65.92-40.38l26.73,55.04-19.52,28.84-34.74-2.49-26.73-55.04c-17.13,21-21.65,50.8-9.04,76.77,11.97,24.66,36.19,39.36,61.78,40.39l22.86,47.07,64.33,132.47c4.9,10.1,17.06,14.31,27.16,9.4l24.42-11.86Z"/>
        <path class="st11" d="M779.23,231.19c-10.1,4.9-14.31,17.06-9.4,27.16l17.89,36.83,69.29,142.71c-15.01,20.75-18.43,48.87-6.46,73.52,12.62,25.98,38.83,40.86,65.92,40.38l-26.73-55.04,19.52-28.84,34.74,2.49,26.73,55.04c17.13-21,21.65-50.8,9.04-76.77-11.97-24.66-36.19-39.36-61.78-40.39l-22.86-47.07-64.33-132.47c-4.9-10.1-17.06-14.31-27.16-9.4l-24.42,11.86Z"/>
      </g>
      <path class="st7" d="M795.34,233.55h38.27c2.11,0,3.82,1.71,3.82,3.82v87.93h-32.7c-7.3,0-13.22-5.92-13.22-13.22v-74.71c0-2.11,1.71-3.82,3.82-3.82Z" transform="translate(671.4 -569.68) rotate(61.5)"/>
      <path class="st7" d="M818.72,337.91l-4.42-8.14-11.34,12.53c-1.67-3.08-18.11-32.39-15.03-34.06l66.32-34.37c4.5-2.44,10.13-.78,12.57,3.72l12.94,23.84c2.44,4.5.78,10.13-3.72,12.57l-47.03,23.95c-3.08,1.67-8.61,3.03-10.28-.05Z"/>
      <path class="st7" d="M826.97,357.29h0c-6.09-11.21-2.07-25.09,8.92-30.82l32.23-16.8c6.23-3.38,14.1-.93,17.58,5.49l9.18,16.92c3.48,6.41,1.25,14.35-4.98,17.73l-33.99,8.87c-10.74,5.59-23.01,9.57-28.95-1.38Z"/>
      <path class="st2" d="M792.87,350.54s32.42-13.57,22.64-46.21"/>
      <path class="st2" d="M783.59,267.17l34.92-4.83,31.75,55.63c3.01,5.28-.03,11.96-6,13.15h0c-5.14,1.02-10.47.18-15.04-2.39l-11.58-6.5"/>
      <line class="st2" x1="862.11" y1="273.24" x2="836.28" y2="287.98"/>
      <line class="st2" x1="881.77" y1="306.57" x2="851.72" y2="323.16"/>
      <path class="st2" d="M813.19,332.72h0c2.61,4.57,7.46,7.06,12.38,6.88"/>
      <path class="st2" d="M837.1,331.51l-4.54,2.59c-7.83,4.47-10.66,14.26-6.31,21.87h0c4.34,7.61,14.21,10.16,22.04,5.69l1.7-.97"/>
      <path class="st7" d="M842.48,384.13h0c-4.3-7.92.11-18.57,9.78-23.65l28.37-14.91c5.49-2.98,11.94-1.73,14.4,2.8l6.48,11.94c2.46,4.53,0,10.61-5.49,13.6l-29.27,9.12c-9.45,4.97-20.07,8.83-24.27,1.1Z"/>
      <path class="st2" d="M897.8,349.98l-3.41-3.7c-3.24-2.32-7.3-3.27-11.21-2.46-3.73.77-7.38,2.14-10.77,4.07l-25.93,14.8c-7.38,4.21-10.34,12.91-6.62,19.43h0c3.72,6.52,12.72,8.4,20.1,4.19l17.05-9.73"/>
    </g>
  </g>
  <path class="st10" d="M426.99,695.93"/>
</svg>