<?xml version="1.0" encoding="UTF-8"?>
<svg id="Layer_1" data-name="Layer 1" xmlns="http://www.w3.org/2000/svg" viewBox="0 0 933.51 786.54">
  <defs>
    <style>
      .cls-1 {
        fill: #ffd04b;
      }

      .cls-2 {
        fill: #1c180c;
      }
    </style>
  </defs>
  <path class="cls-1" d="M2.72,0h577.03c195.26,0,353.78,158.52,353.78,353.78v430.04c0,1.5-1.22,2.72-2.72,2.72H353.78C158.52,786.54,0,628.02,0,432.76V2.72C0,1.22,1.22,0,2.72,0Z"/>
  <g>
    <path class="cls-2" d="M933.37,678.96c-46.69,1.01-88.93-9.55-124.73-30.16-35.8-20.6-65.17-51.25-86.12-90.39-34.43-64.34-36.67-120.41-39.53-168.5-2.86-48.1-6.35-88.22-43.29-120.66-6.57-5.77-15.86-9.07-26.24-11.15-10.38-2.09-21.84-2.96-32.75-3.88l.08-73.24.08-73.24c81.09-3.25,143.44,28.8,185.63,80.61,42.2,51.82,64.24,123.4,64.72,199.23.21,33.23,4.99,70.19,20.12,98.37,15.12,28.17,40.59,47.55,82.17,45.6l-.07,73.7-.07,73.7Z"/>
    <path class="cls-2" d="M352.66,678.96c-46.69,1.01-88.93-9.55-124.73-30.16-35.8-20.6-65.17-51.25-86.12-90.39-34.43-64.34-36.67-120.41-39.53-168.5-2.86-48.1-6.35-88.22-43.29-120.66-6.57-5.77-15.86-9.07-26.24-11.15-10.38-2.09-21.84-2.96-32.75-3.88l.08-73.24.08-73.24c81.09-3.25,143.44,28.8,185.63,80.61,42.2,51.82,64.24,123.4,64.72,199.23.21,33.23,4.99,70.19,20.12,98.37,15.12,28.17,40.59,47.55,82.17,45.6l-.07,73.7-.07,73.7Z"/>
    <path class="cls-2" d="M643.01,678.96c-46.69,1.01-88.93-9.55-124.73-30.16-35.8-20.6-65.17-51.25-86.12-90.39-34.43-64.34-36.67-120.41-39.53-168.5-2.86-48.1-6.35-88.22-43.29-120.66-6.57-5.77-15.86-9.07-26.24-11.15s-21.84-2.96-32.75-3.88l.08-73.24.08-73.24c81.09-3.25,143.44,28.8,185.63,80.61,42.2,51.82,64.24,123.4,64.72,199.23.21,33.23,4.99,70.19,20.12,98.37,15.12,28.17,40.59,47.55,82.17,45.6l-.07,73.7-.07,73.7Z"/>
  </g>
</svg>